<?xml version="1.0" standalone="no"?>
<!DOCTYPE svg PUBLIC "-//W3C//DTD SVG 20010904//EN"
 "http://www.w3.org/TR/2001/REC-SVG-20010904/DTD/svg10.dtd">
<svg version="1.0" xmlns="http://www.w3.org/2000/svg"
 width="1440.000000pt" height="1440.000000pt" viewBox="0 0 1440.000000 1440.000000"
 preserveAspectRatio="xMidYMid meet">
<metadata>
Created by potrace 1.14, written by Peter Selinger 2001-2017
</metadata>
<g transform="translate(0.000000,1440.000000) scale(0.100000,-0.100000)"
fill="#000000" stroke="none">
<path d="M6800 13131 c-42 -9 -75 -26 -102 -53 -26 -26 -35 -16 -14 17 22 33
7 32 -39 -5 -21 -16 -44 -30 -52 -30 -8 0 -26 -9 -40 -20 -14 -11 -33 -20 -42
-20 -19 1 -55 46 -46 60 9 14 33 1 40 -22 5 -12 14 -18 28 -16 32 5 30 21 -8
46 -43 27 -59 28 -85 2 -23 -23 -42 -25 -72 -9 -18 10 -25 8 -39 -10 -9 -11
-24 -21 -32 -21 -8 0 -20 -7 -27 -15 -7 -8 -20 -15 -30 -15 -35 0 -125 -33
-142 -52 -9 -11 -33 -22 -53 -25 -23 -4 -42 -15 -52 -30 -10 -16 -23 -23 -34
-20 -12 3 -27 -6 -44 -29 -14 -19 -34 -34 -43 -34 -9 0 -35 -25 -57 -55 -22
-30 -45 -55 -51 -55 -6 0 -41 -45 -77 -99 -37 -55 -71 -102 -77 -106 -15 -9
-12 -25 5 -25 22 0 18 -18 -5 -25 -20 -6 -62 -57 -59 -72 5 -18 -14 -64 -31
-76 -13 -9 -18 -26 -18 -67 0 -30 -12 -125 -27 -210 -45 -258 -45 -518 1 -615
31 -67 37 -93 39 -160 1 -38 5 -82 9 -98 7 -23 6 -26 -8 -21 -13 5 -16 -1 -16
-26 0 -38 28 -137 40 -145 5 -3 7 -19 3 -36 -3 -17 1 -48 12 -75 9 -25 17 -69
17 -97 0 -56 23 -153 39 -162 5 -4 9 -12 9 -20 0 -8 11 -26 25 -41 17 -18 23
-33 19 -43 -4 -9 -8 -36 -9 -61 -1 -25 -5 -85 -9 -135 -9 -97 -3 -113 51 -129
38 -12 35 -34 -10 -73 -23 -21 -63 -59 -89 -84 -26 -26 -56 -53 -67 -59 -12
-6 -21 -18 -21 -28 0 -9 -30 -39 -65 -67 -36 -27 -79 -70 -97 -95 -18 -24 -53
-65 -78 -90 -80 -78 -161 -173 -210 -245 -26 -39 -64 -84 -84 -101 -20 -17
-36 -40 -36 -50 0 -28 -57 -143 -74 -150 -8 -3 -22 -21 -31 -40 -18 -39 -51
-48 -40 -11 4 12 15 34 26 49 15 21 18 37 13 65 -3 21 -6 54 -6 73 1 19 -3 39
-7 45 -5 5 -6 31 -2 58 5 26 4 47 0 47 -5 0 -6 14 -2 30 4 20 2 30 -7 30 -7 0
-10 7 -6 16 4 11 -2 10 -24 -6 -18 -13 -37 -19 -49 -15 -15 4 -26 -3 -45 -32
-14 -21 -26 -46 -26 -56 0 -12 -6 -17 -17 -15 -22 4 -41 -19 -78 -97 -16 -33
-35 -66 -42 -73 -7 -7 -18 -32 -24 -54 -9 -36 -8 -44 5 -54 9 -6 16 -16 16
-22 0 -6 16 -16 35 -23 19 -7 35 -16 35 -19 0 -9 126 -100 140 -100 6 0 8 -4
5 -10 -3 -5 -1 -10 4 -10 6 0 11 -12 11 -26 0 -24 -2 -23 -45 20 -25 25 -48
46 -51 46 -4 0 -32 21 -63 46 -50 42 -99 70 -107 62 -1 -2 -5 -17 -8 -33 -3
-17 -12 -35 -21 -41 -8 -6 -15 -18 -15 -27 0 -9 -4 -19 -10 -22 -5 -3 -10 -19
-10 -35 0 -16 -4 -31 -9 -34 -4 -3 -14 -34 -20 -68 -7 -35 -17 -71 -22 -80 -5
-10 -9 -27 -9 -37 0 -11 -4 -23 -10 -26 -5 -3 -10 -22 -10 -41 0 -19 -4 -34
-10 -34 -5 0 -10 -11 -10 -25 0 -13 -4 -34 -9 -47 -5 -13 -14 -43 -21 -68 -7
-25 -16 -54 -20 -65 -11 -27 -20 -63 -27 -105 -2 -19 -9 -39 -14 -45 -14 -14
-11 -45 5 -45 19 0 28 -14 20 -34 -8 -20 -34 -21 -34 -1 0 8 -5 15 -11 15 -13
0 -2 -53 12 -58 13 -5 11 -52 -2 -52 -6 0 -13 9 -16 20 -10 38 -26 21 -20 -22
2 -24 3 -37 0 -30 -7 19 -23 3 -23 -24 0 -13 -4 -24 -10 -24 -5 0 -10 -15 -10
-34 0 -19 -4 -37 -9 -40 -5 -3 -11 -21 -13 -40 -3 -25 0 -32 9 -29 10 4 13 -3
11 -24 -1 -16 1 -34 5 -40 8 -13 -1 -43 -14 -43 -5 0 -9 16 -9 35 0 19 -4 35
-10 35 -5 0 -10 -8 -10 -18 0 -10 -4 -22 -9 -27 -12 -13 -23 -137 -11 -130 8
5 40 -32 40 -47 0 -14 -31 -9 -47 8 -10 10 -19 12 -26 5 -14 -14 -1 -42 18
-35 10 4 15 0 15 -10 0 -9 7 -16 15 -16 8 0 15 5 15 11 0 7 11 9 30 6 21 -5
32 -2 38 9 8 14 10 14 16 -1 11 -29 -4 -84 -25 -90 -11 -4 -17 -10 -14 -15 11
-18 -7 -37 -36 -37 -28 0 -48 -15 -49 -35 0 -5 13 -8 29 -8 27 0 29 -3 33 -45
4 -50 2 -52 -24 -28 -17 15 -18 15 -18 -12 0 -15 -8 -34 -17 -41 -43 -31 41
-69 89 -40 24 14 33 1 33 -50 0 -31 -4 -44 -14 -44 -11 0 -13 -14 -8 -75 4
-60 2 -78 -9 -88 -42 -34 -54 -49 -54 -67 0 -11 5 -20 10 -20 6 0 10 -13 10
-30 0 -16 5 -30 10 -30 21 0 9 -39 -20 -61 -23 -18 -30 -32 -30 -58 0 -19 -7
-42 -16 -52 -19 -21 -10 -89 12 -89 8 0 14 -4 14 -10 0 -5 -9 -10 -21 -10 -15
0 -19 -4 -15 -16 4 -9 -1 -28 -9 -41 -9 -13 -13 -33 -10 -43 5 -17 2 -20 -24
-20 -19 0 -31 -5 -31 -13 0 -7 -5 -18 -12 -25 -6 -6 -13 -23 -14 -38 -2 -15
-9 -31 -16 -35 -10 -6 -9 -15 4 -41 12 -25 27 -38 57 -48 22 -7 48 -24 56 -37
9 -13 20 -21 25 -18 5 3 20 1 32 -6 35 -19 213 -57 241 -52 18 4 28 -1 36 -16
11 -19 9 -21 -15 -21 -17 0 -28 -6 -31 -20 -3 -11 -13 -21 -22 -22 -58 -5
-114 -20 -127 -33 -16 -15 -8 -45 11 -45 7 0 15 6 17 12 3 9 9 8 21 -4 16 -16
16 -17 -5 -24 -19 -7 -16 -9 22 -15 57 -9 239 -2 254 9 6 5 24 12 40 16 29 7
117 46 126 55 12 14 40 33 40 28 0 -11 -75 -77 -87 -77 -7 0 -29 -9 -49 -21
-45 -25 -130 -47 -206 -53 -113 -9 -334 39 -480 103 -50 23 -134 108 -144 147
-14 56 -30 21 -47 -103 -21 -146 -52 -314 -66 -358 -30 -90 -44 -154 -71 -325
-17 -106 -29 -141 -57 -171 -23 -25 -24 -28 -10 -56 13 -25 15 -65 10 -254 -7
-276 -7 -281 1 -349 6 -49 7 -125 5 -215 -3 -78 10 -365 22 -492 10 -114 10
-156 0 -212 -7 -38 -12 -104 -12 -147 1 -141 -14 -338 -26 -360 -7 -12 -12
-41 -11 -65 0 -24 -5 -87 -11 -139 -9 -69 -9 -112 -2 -156 6 -33 11 -93 11
-134 0 -61 5 -85 36 -154 19 -44 44 -103 56 -131 11 -27 26 -63 33 -80 7 -16
33 -57 58 -90 25 -33 59 -90 76 -125 21 -44 43 -72 66 -87 19 -13 43 -40 54
-60 10 -21 31 -51 46 -68 33 -38 89 -138 105 -188 6 -20 21 -42 33 -49 12 -6
52 -36 89 -67 84 -71 168 -119 221 -126 52 -8 120 -53 212 -140 87 -83 182
-133 271 -144 80 -9 97 -24 85 -71 -5 -19 -12 -53 -15 -75 -6 -38 -6 -39 10
-20 8 11 22 37 31 58 18 44 48 52 40 9 -3 -15 -33 -103 -67 -197 -64 -178 -97
-299 -108 -400 -4 -33 -19 -85 -34 -115 -33 -69 -58 -156 -58 -203 l0 -37
1960 0 c1734 0 1961 2 1966 15 4 8 13 15 20 15 8 0 17 -7 20 -15 5 -13 42 -15
245 -15 131 0 239 3 239 6 0 3 -12 20 -26 37 -18 21 -22 33 -14 35 7 3 17 -3
22 -12 5 -10 21 -21 34 -26 13 -5 24 -16 24 -25 0 -11 11 -15 45 -15 25 0 45
3 45 6 0 4 -21 27 -47 52 -40 37 -45 46 -30 50 10 2 24 -3 30 -11 7 -9 23 -17
37 -19 22 -3 25 -8 24 -40 -2 -49 27 -52 50 -5 8 17 16 26 16 19 0 -7 5 -10
10 -7 16 10 12 38 -4 32 -22 -9 -28 23 -11 49 9 13 19 24 24 24 4 0 8 12 8 28
1 26 20 105 42 167 52 151 71 230 81 345 13 143 43 248 66 229 9 -7 14 -35 15
-78 l2 -66 7 62 c4 34 13 70 21 80 69 89 104 123 125 123 l24 0 -29 54 c-33
63 -39 88 -51 216 -5 52 -13 111 -18 130 -6 19 -15 85 -22 145 -11 114 -26
184 -48 223 -11 18 -11 31 -1 60 6 20 16 40 22 43 14 10 -1 29 -23 29 -10 0
-21 4 -24 9 -6 9 -58 -10 -53 -19 2 -3 13 -27 26 -53 23 -49 23 -66 0 -52 -6
4 -54 9 -105 9 -72 2 -98 6 -112 19 -22 20 -43 22 -60 5 -18 -18 -15 -40 6
-37 24 4 72 -10 72 -21 0 -13 -34 -22 -54 -14 -10 4 -28 1 -42 -6 -19 -11 -27
-11 -36 -2 -18 18 -31 14 -25 -8 3 -13 0 -20 -9 -20 -8 0 -14 5 -14 10 0 6 -9
10 -20 10 -11 0 -20 -4 -20 -8 0 -5 -32 -8 -72 -8 l-72 1 -7 35 c-8 39 -4 49
13 32 16 -16 75 -15 81 1 7 19 -11 57 -28 57 -8 0 -15 -4 -15 -10 0 -5 -6 -10
-12 -10 -35 0 50 53 152 96 63 26 120 54 127 62 7 8 20 11 32 7 26 -8 29 18 5
42 -14 14 -13 17 8 29 13 8 31 17 40 20 10 3 16 10 13 14 -6 10 -41 3 -83 -18
-32 -16 -34 -16 -48 2 -12 17 -17 18 -38 7 -15 -9 -44 -11 -87 -7 -35 3 -74 6
-86 7 -13 1 -23 5 -23 11 0 5 5 6 10 3 12 -8 13 15 1 34 -6 10 -13 11 -29 2
-11 -6 -24 -11 -27 -11 -13 0 40 76 86 124 33 34 72 98 134 220 48 94 100 187
114 206 27 33 43 62 71 122 7 15 21 37 32 47 10 11 18 25 18 32 0 6 7 8 16 5
13 -5 15 -1 10 20 -6 21 0 37 24 71 18 24 30 47 26 50 -8 8 -41 -34 -67 -87
-12 -25 -36 -65 -54 -90 -18 -25 -35 -57 -38 -71 -6 -25 -163 -173 -254 -238
-54 -39 -146 -85 -203 -102 -25 -7 -54 -19 -65 -26 -11 -6 -56 -21 -100 -32
-44 -10 -100 -25 -125 -33 -45 -15 -145 -43 -255 -73 -95 -25 -244 -55 -320
-65 -38 -5 -123 -16 -188 -24 -160 -22 -340 -21 -425 1 -37 10 -113 41 -170
70 -80 41 -139 62 -260 92 -86 22 -200 51 -252 66 -52 15 -111 31 -130 36 -19
4 -82 9 -140 9 -95 0 -214 15 -325 38 -36 8 -137 36 -500 137 -181 50 -279 72
-396 89 -133 20 -180 20 -205 1 -27 -20 -34 -19 -34 10 0 16 14 38 37 60 20
19 34 35 29 35 -15 0 -51 -23 -64 -41 -12 -18 -13 -18 -30 -1 -10 10 -29 26
-41 34 -16 11 -21 22 -17 34 6 16 8 16 21 -2 14 -18 15 -17 27 14 11 28 16 32
38 27 33 -9 36 -13 22 -27 -16 -16 -15 -28 4 -28 8 0 21 15 29 34 19 45 103
81 175 74 28 -3 50 -4 50 -2 0 4 -60 31 -87 39 -13 3 -23 11 -23 16 0 14 -110
11 -173 -6 -65 -17 -96 -19 -82 -6 33 29 209 56 345 53 61 -2 234 -29 318 -51
20 -5 64 -15 97 -21 77 -16 165 -40 344 -97 157 -49 221 -62 221 -44 0 6 -5
11 -10 11 -6 0 -20 11 -32 25 -12 14 -25 25 -30 25 -4 0 -17 9 -28 20 -11 11
-27 20 -35 20 -8 0 -15 6 -15 13 0 8 -11 19 -25 25 -14 7 -25 20 -25 31 0 12
-9 21 -25 25 -14 4 -25 10 -25 15 0 5 -13 12 -30 16 -16 4 -34 14 -39 22 -11
20 -168 28 -190 10 -20 -17 -115 -36 -182 -36 -80 -1 -85 19 -11 54 30 15 67
35 80 46 14 11 33 17 43 14 12 -4 31 6 57 30 35 31 46 35 82 33 28 -2 44 2 47
10 3 8 -6 12 -26 12 -17 0 -31 5 -31 10 0 6 -7 10 -16 10 -14 0 -14 3 -4 15
13 16 16 134 5 186 -4 16 -4 29 -1 29 3 0 25 -21 48 -46 45 -49 82 -119 74
-141 -3 -7 1 -13 9 -13 18 0 18 -1 5 -35 -8 -20 -6 -29 9 -44 15 -15 16 -22 8
-31 -9 -10 -7 -12 10 -7 13 3 26 1 29 -4 3 -5 12 -9 20 -9 28 0 114 -81 114
-107 0 -16 6 -23 19 -23 11 0 22 -6 24 -12 4 -10 8 -10 15 1 7 9 12 10 16 2 4
-6 2 -11 -3 -11 -6 0 -11 -4 -11 -9 0 -5 14 -9 30 -9 17 1 36 -4 42 -10 9 -9
7 -12 -9 -12 -11 0 -24 -7 -27 -16 -9 -22 -8 -24 9 -18 10 4 15 0 15 -15 0
-12 -4 -21 -10 -21 -5 0 -10 -7 -10 -15 0 -8 4 -15 9 -15 5 0 17 -3 27 -7 12
-4 15 -3 10 6 -4 6 -3 17 2 24 5 7 12 33 16 58 7 45 6 47 -24 59 -24 10 -29
17 -24 33 5 16 3 19 -10 14 -11 -4 -16 -1 -16 12 0 25 11 33 26 20 11 -9 15
-7 21 6 4 11 0 22 -9 29 -9 7 -18 37 -22 79 -6 49 -14 75 -28 89 -12 12 -22
37 -24 61 -1 23 -9 46 -17 52 -8 6 -16 18 -18 28 -2 10 -7 17 -10 15 -3 -2
-14 3 -23 11 -12 10 -13 16 -6 21 8 5 5 17 -9 40 -11 19 -18 37 -15 42 9 15
-13 8 -26 -7 -10 -12 -16 -13 -24 -4 -8 8 -8 13 0 15 13 5 6 64 -9 64 -12 0
-32 25 -53 67 -14 27 -20 32 -41 27 -22 -6 -23 -4 -17 20 5 21 3 26 -12 26
-18 0 -59 40 -97 94 -10 14 -27 26 -37 26 -11 0 -25 9 -32 19 -10 16 -15 17
-26 8 -11 -9 -22 -3 -52 33 -35 41 -39 43 -64 32 -14 -6 -26 -16 -26 -22 0 -5
-6 -10 -12 -10 -13 1 -48 65 -48 87 0 6 -7 16 -15 23 -13 11 -15 8 -15 -13 0
-38 -17 -42 -35 -7 -8 16 -20 30 -25 30 -20 0 -9 36 25 83 l35 47 63 1 c34 0
105 2 157 5 95 4 95 4 128 41 55 62 69 42 123 -182 6 -27 24 -69 39 -93 15
-23 31 -58 34 -77 8 -39 24 -54 37 -34 9 15 3 175 -8 192 -3 6 -7 22 -9 36 -9
103 -26 226 -33 239 -5 10 -12 35 -16 57 -10 49 -9 45 -19 73 -13 39 8 52 84
52 44 0 98 -9 151 -25 46 -14 93 -27 104 -29 11 -1 56 -15 101 -29 44 -14 134
-38 200 -52 112 -24 181 -42 334 -84 95 -27 198 -44 254 -43 28 0 93 -7 145
-18 53 -10 119 -21 146 -25 28 -4 59 -9 70 -12 17 -5 18 -4 6 11 -7 9 -22 16
-31 16 -10 0 -31 7 -47 15 -47 25 -121 55 -135 55 -7 0 -39 14 -72 30 -32 16
-68 29 -80 29 -24 -1 -47 4 -61 12 -5 4 -28 10 -50 14 -40 7 -212 59 -250 75
-11 5 -65 23 -120 40 -106 33 -142 47 -300 115 -142 61 -168 73 -185 85 -26
18 -256 101 -357 129 -35 9 -66 20 -69 24 -4 4 -20 7 -35 7 -35 0 -46 16 -16
24 35 9 47 7 47 -9 0 -17 16 -20 25 -6 3 6 18 6 38 0 17 -5 33 -9 33 -9 1 0
-3 11 -9 24 -8 17 -15 22 -23 15 -8 -7 -14 -6 -19 1 -3 6 8 26 27 45 31 33 36
35 99 35 55 0 82 -7 151 -36 46 -20 98 -42 115 -48 18 -7 36 -15 39 -19 4 -4
17 -7 28 -6 20 0 20 1 2 8 -19 7 -19 8 -1 14 10 5 35 -1 59 -13 23 -11 56 -21
74 -23 18 -2 32 -7 32 -10 0 -4 0 -11 0 -17 0 -5 -11 -10 -24 -10 -14 0 -28 5
-31 10 -3 6 -16 10 -28 9 -19 0 -18 -2 8 -14 82 -36 114 -47 124 -40 18 10 1
26 -20 20 -13 -4 -19 -2 -19 8 0 20 27 29 37 13 5 -7 17 -16 28 -20 20 -7 20
-8 1 -22 -15 -10 -16 -14 -5 -15 25 -2 44 3 50 13 8 13 59 2 59 -13 0 -6 -9
-8 -20 -4 -11 3 -25 3 -32 -1 -26 -17 246 -61 317 -51 22 3 72 11 110 18 39 7
89 13 113 12 35 0 42 3 42 19 0 12 -4 16 -11 12 -8 -5 -10 1 -6 18 11 43 -22
57 -168 74 -35 5 -47 3 -40 -4 6 -6 28 -13 50 -16 98 -13 181 -56 106 -56 -16
0 -32 -4 -35 -9 -4 -5 -48 -9 -99 -9 -71 0 -98 4 -117 18 -27 19 -77 35 -98
31 -8 -1 -24 5 -37 13 -14 9 -36 16 -50 16 -14 0 -25 5 -25 10 0 6 -7 10 -16
10 -8 0 -36 16 -62 36 -34 26 -54 34 -74 32 -19 -3 -28 0 -28 9 0 20 -32 53
-52 53 -12 0 -18 8 -18 21 0 14 -12 25 -40 37 -23 10 -40 24 -40 33 0 15 -12
24 -38 30 -4 1 -14 14 -23 28 -9 14 -35 45 -58 68 -22 23 -41 47 -41 53 0 19
28 10 58 -17 115 -108 266 -222 295 -223 17 0 -6 21 -75 67 -123 81 -202 160
-253 253 -11 19 -28 45 -38 57 -11 12 -18 26 -16 31 2 5 92 99 199 209 179
183 201 203 270 236 105 49 195 77 254 77 28 1 83 8 121 16 39 8 82 17 96 20
16 4 30 0 38 -10 8 -9 20 -16 28 -16 7 0 16 -7 19 -15 4 -8 12 -15 20 -15 8 0
14 -4 14 -10 0 -20 97 4 167 42 40 22 75 44 78 48 6 10 112 61 131 64 21 3 45
29 40 42 -6 15 25 44 46 44 9 0 18 -7 22 -15 3 -8 13 -15 22 -15 10 0 14 -5
11 -15 -4 -8 -2 -17 3 -20 20 -12 9 -33 -21 -39 -25 -5 -29 -9 -24 -26 4 -14
2 -20 -9 -20 -8 0 -30 -13 -48 -30 -24 -22 -28 -30 -15 -30 9 0 17 -4 17 -9 0
-20 -46 -62 -69 -64 -14 -1 -27 -10 -32 -23 -5 -16 -14 -21 -27 -17 -10 2 -37
-3 -58 -12 -34 -14 -37 -18 -21 -26 22 -13 24 -54 1 -45 -8 3 -28 -1 -44 -9
-16 -8 -38 -15 -49 -15 -14 0 -21 -9 -26 -30 -7 -30 -44 -80 -60 -80 -14 0
-55 -51 -49 -61 6 -10 -14 -35 -65 -84 -12 -11 -33 -32 -48 -47 -33 -35 -38
-35 -73 0 -16 15 -37 35 -47 44 -10 9 -24 24 -31 32 -9 11 -21 14 -37 10 -20
-5 -25 -2 -26 12 0 11 -3 14 -6 7 -7 -20 -27 -15 -38 9 -15 32 -39 37 -33 6 4
-23 2 -24 -49 -24 -55 0 -78 -14 -68 -41 7 -19 -14 -26 -32 -11 -9 7 -26 11
-38 10 -13 -2 -26 2 -30 8 -3 5 -11 8 -16 4 -5 -3 -7 -10 -4 -15 4 -5 0 -9 -8
-9 -8 0 -38 -13 -68 -28 -63 -34 -111 -36 -182 -8 -42 17 -50 17 -58 5 -25
-38 36 -180 93 -214 9 -5 37 -25 64 -43 116 -81 238 -124 524 -181 85 -18 184
-42 220 -54 77 -26 219 -27 325 -2 55 12 74 12 147 0 45 -7 106 -21 133 -29
28 -9 61 -16 75 -16 14 0 34 -7 44 -15 11 -8 25 -15 32 -15 14 0 29 36 25 62
-1 10 10 23 27 32 28 14 29 17 22 58 -6 32 -5 47 6 59 8 9 17 32 21 52 4 25
12 37 27 41 20 6 20 7 4 20 -10 7 -18 21 -18 30 0 9 -4 16 -10 16 -13 0 -13
33 0 46 7 7 3 23 -10 49 -25 48 -25 55 -2 97 12 20 20 57 21 95 2 53 -1 63
-18 73 -11 6 -32 8 -46 4 l-26 -6 21 35 c17 28 19 40 11 56 -15 26 -14 43 3
66 11 15 17 17 28 7 18 -15 28 -6 28 25 0 13 5 23 11 23 7 0 8 12 4 33 -10 42
-11 43 -35 22 -22 -20 -36 -13 -42 20 -2 15 -12 21 -41 23 -37 3 -38 4 -31 38
5 30 4 34 -14 34 -12 0 -24 -4 -27 -10 -3 -6 -13 -10 -21 -10 -10 0 -13 7 -8
24 3 13 1 27 -5 31 -14 8 -4 25 15 25 8 0 14 -7 14 -15 0 -8 9 -15 19 -15 11
0 22 -6 24 -12 4 -10 8 -9 16 2 8 11 7 16 -4 18 -23 5 10 62 35 62 13 0 20 7
20 19 0 14 -5 18 -20 14 -14 -4 -20 0 -20 11 0 9 -4 16 -9 16 -16 0 -61 46
-61 63 0 11 -8 15 -29 12 -40 -5 -61 20 -35 41 10 8 31 20 47 25 15 6 27 18
27 26 0 10 6 14 20 10 26 -7 38 13 17 28 -20 14 -22 41 -4 48 8 3 6 10 -8 26
-16 19 -17 25 -6 43 11 18 11 22 -4 30 -13 8 -14 13 -4 24 6 8 20 14 30 14 23
0 35 20 19 30 -8 5 -11 19 -7 38 5 26 4 29 -13 25 -11 -3 -20 0 -20 6 0 6 5
11 10 11 6 0 10 9 10 20 0 11 5 20 10 20 6 0 10 11 10 24 0 28 15 42 26 25 4
-8 9 -7 15 2 13 21 11 29 -10 29 -28 0 -36 31 -10 37 15 4 20 12 17 32 -1 14
1 32 5 38 4 7 1 23 -8 36 -14 22 -14 26 9 50 26 28 25 29 -9 31 -13 1 -19 7
-16 16 5 20 4 39 -6 80 -8 31 -6 36 16 48 21 11 26 10 33 -3 11 -18 38 -20 38
-2 0 7 -6 19 -12 25 -10 10 -8 14 9 18 12 3 21 13 21 22 0 10 3 25 7 35 5 13
2 17 -14 17 -12 0 -21 -4 -21 -10 0 -5 -15 -10 -34 -10 -19 0 -38 -4 -41 -10
-3 -5 -19 -10 -35 -10 -16 0 -32 -4 -35 -10 -3 -5 -17 -10 -30 -10 -13 0 -27
-4 -30 -10 -3 -5 -15 -10 -26 -10 -10 0 -27 -4 -37 -9 -53 -27 -122 -39 -122
-21 0 6 15 10 34 10 19 0 38 5 41 10 3 6 16 10 29 10 12 0 26 4 32 8 14 14
112 49 189 68 39 10 108 37 153 62 46 24 93 45 103 47 10 2 46 25 79 50 33 25
85 57 115 71 52 24 71 44 41 44 -7 0 -19 7 -26 15 -12 15 -123 16 -147 2 -7
-5 -9 0 -6 13 4 16 0 20 -20 20 -14 0 -29 -4 -32 -10 -3 -5 -13 -10 -21 -10
-10 0 -13 7 -8 26 5 20 2 26 -12 30 -20 5 -54 56 -54 80 0 8 -9 14 -21 14 -12
0 -18 4 -13 11 3 6 0 16 -7 21 -10 7 -7 7 9 3 19 -5 22 -2 24 22 0 15 1 36 0
46 -1 10 5 17 17 17 21 0 36 48 20 65 -19 19 -8 27 30 20 49 -8 61 8 30 41
-17 19 -19 24 -7 24 9 0 21 -7 28 -15 15 -19 40 -20 40 -2 0 8 -9 22 -20 32
-11 10 -20 24 -20 32 0 24 33 14 60 -19 43 -51 63 -22 36 54 -11 32 -11 39 1
49 11 9 17 8 28 -7 8 -10 15 -22 15 -26 0 -12 35 -9 48 4 15 15 16 64 2 73
-21 13 -8 35 38 66 26 18 50 37 53 42 24 35 38 359 17 400 -12 23 -28 12 -28
-20 0 -36 -54 -112 -90 -126 -13 -5 -13 -6 -1 -6 8 -1 22 6 32 15 10 9 20 11
23 6 6 -11 -103 -121 -155 -156 -51 -35 -129 -42 -201 -20 -67 22 -77 37 -18
28 51 -8 55 12 4 22 l-35 6 28 18 c56 35 129 123 147 180 10 30 23 61 28 68
21 25 -3 11 -32 -18 -19 -19 -35 -28 -43 -23 -8 5 -7 9 6 11 13 3 17 10 14 22
-3 13 0 17 9 13 8 -3 14 1 14 11 0 9 -4 16 -10 16 -17 0 -11 29 10 50 11 11
20 32 20 47 0 35 -9 25 -59 -72 -23 -44 -64 -105 -91 -135 -27 -30 -50 -61
-50 -68 0 -7 -5 -10 -10 -7 -8 5 -7 11 1 21 7 9 9 36 6 76 -4 44 -4 52 2 25 4
-20 11 -40 14 -43 13 -13 37 6 37 29 0 14 7 30 15 37 8 7 15 23 15 37 0 13 7
26 15 29 8 4 15 17 15 29 0 13 5 27 11 30 7 5 5 15 -5 31 -9 13 -16 29 -16 35
0 7 -17 33 -37 58 -50 61 -55 66 -78 75 -12 5 -15 10 -8 13 7 2 21 -1 32 -7
18 -9 21 -8 21 10 0 11 4 20 10 20 5 0 16 13 25 30 12 23 12 31 2 37 -7 4 -21
25 -32 46 -20 38 -20 38 0 53 20 15 22 48 3 71 -5 7 -7 21 -3 33 4 12 1 27 -5
35 -13 16 -5 91 11 101 14 8 11 24 -6 24 -8 0 -15 -7 -15 -15 0 -8 -7 -15 -15
-15 -24 0 -17 26 10 38 30 14 35 47 6 37 -17 -5 -20 1 -25 52 -3 32 -6 68 -7
81 -1 12 -5 22 -10 22 -5 0 -9 10 -8 23 l0 22 9 -22 c5 -13 17 -23 27 -23 17
1 17 1 1 14 -20 15 -24 46 -6 46 6 0 8 3 5 6 -4 4 -13 1 -21 -5 -17 -15 -28
-1 -15 19 14 23 11 62 -7 82 -13 14 -14 21 -5 32 9 10 10 28 4 56 -8 42 -30
53 -25 13 3 -17 -1 -21 -12 -17 -24 9 -31 45 -12 59 21 16 20 44 -1 67 -17 19
-16 19 10 13 34 -9 35 3 5 50 -26 39 -38 44 -38 17 0 -10 -3 -22 -7 -26 -15
-15 -30 -77 -32 -132 -4 -90 -8 -137 -26 -289 -8 -77 -22 -203 -30 -280 -8
-77 -19 -169 -25 -205 -6 -36 -14 -87 -17 -114 -3 -27 -11 -56 -19 -64 -9 -9
-14 -37 -14 -82 0 -57 -3 -69 -17 -72 -10 -2 -18 -12 -19 -23 0 -11 -1 -48 -2
-82 -2 -73 -17 -82 -46 -28 -11 19 -25 35 -32 35 -10 0 -8 -10 7 -36 24 -43
16 -59 -12 -25 -26 32 -34 21 -18 -24 11 -29 11 -40 1 -56 -10 -16 -10 -20 1
-25 8 -3 12 -14 10 -28 -3 -13 2 -30 11 -39 22 -21 20 -33 -6 -42 -27 -8 -28
-8 -50 0 -13 5 -21 -2 -34 -32 -14 -31 -18 -34 -21 -18 -7 31 -20 40 -37 25
-9 -7 -37 -13 -63 -14 -26 -1 -48 -7 -51 -14 -7 -22 -19 -13 -56 43 -39 59
-46 64 -66 40 -11 -13 -9 -20 11 -43 13 -15 28 -30 34 -34 6 -5 6 -10 0 -17
-12 -12 -33 3 -59 44 -11 17 -21 24 -24 17 -2 -6 6 -25 17 -41 l21 -30 -35
-27 c-26 -19 -35 -34 -35 -55 0 -16 -4 -29 -9 -29 -15 0 -58 64 -65 97 -8 36
-30 60 -41 43 -3 -6 5 -31 19 -56 14 -26 26 -55 26 -65 0 -11 5 -19 10 -19 6
0 10 -6 10 -14 0 -8 7 -13 16 -12 22 2 39 -27 29 -50 -4 -11 -7 -27 -6 -36 2
-12 -5 -18 -18 -18 -11 0 -23 -4 -26 -10 -3 -5 -14 -10 -24 -10 -10 0 -30 -12
-45 -27 -22 -22 -29 -24 -36 -13 -11 18 6 40 31 40 12 0 24 12 33 33 8 17 15
26 15 20 1 -17 31 -17 31 0 0 8 -11 24 -25 37 -14 13 -25 29 -25 35 0 15 -48
103 -61 110 -5 4 -9 -3 -9 -14 0 -11 5 -23 10 -26 6 -4 9 -19 8 -35 -1 -15 3
-34 9 -42 6 -7 15 -31 19 -53 l7 -40 -22 25 c-28 32 -131 191 -131 202 0 4 -4
8 -10 8 -21 0 -4 -99 21 -120 3 -3 8 -13 12 -23 5 -13 13 -16 27 -12 14 5 20
2 20 -9 0 -9 5 -25 12 -36 16 -25 7 -33 -23 -21 -13 5 -18 10 -11 10 21 1 13
21 -9 21 -13 0 -47 28 -92 75 -65 69 -107 94 -107 63 1 -45 78 -184 130 -231
16 -16 30 -35 30 -42 0 -16 38 -27 46 -13 4 5 -16 33 -44 61 -46 47 -122 159
-122 179 0 22 25 0 102 -88 122 -141 129 -152 116 -180 -13 -27 -26 -31 -34
-9 -4 8 -17 15 -30 15 -35 0 -45 -47 -14 -72 12 -10 29 -18 38 -18 15 0 14 -2
-1 -17 -16 -16 -19 -15 -60 25 -23 23 -46 42 -50 42 -17 0 -5 -39 13 -45 11
-4 28 -17 36 -31 9 -13 23 -24 30 -24 16 0 17 -8 15 -65 -2 -51 32 -112 82
-144 29 -19 34 -27 26 -38 -9 -10 -7 -13 8 -13 24 0 59 -35 44 -44 -5 -3 -15
0 -23 7 -21 21 -47 27 -55 14 -5 -7 -26 -21 -48 -32 -46 -24 -57 -51 -25 -63
l21 -8 -20 -26 c-12 -14 -21 -34 -21 -45 -1 -10 -7 -29 -15 -43 l-13 -25 -11
28 c-14 37 -27 28 -35 -25 -4 -23 -12 -46 -18 -49 -16 -10 -38 35 -38 77 0 18
-4 36 -10 39 -12 7 -14 75 -2 75 5 0 14 10 19 23 7 15 29 30 59 41 64 23 114
49 114 58 0 5 7 8 15 8 21 0 19 4 -20 43 -20 20 -35 29 -35 21 0 -21 -38 -22
-78 -2 -18 9 -26 9 -38 -4 -12 -12 -13 -17 -2 -25 19 -15 66 -24 72 -14 3 5
15 7 25 4 10 -3 22 0 26 7 5 8 11 8 21 -1 13 -10 12 -14 -2 -30 -10 -11 -28
-19 -41 -19 -13 0 -37 -7 -53 -15 -27 -14 -30 -14 -48 10 -15 18 -29 25 -56
25 -37 0 -113 -34 -133 -60 -11 -13 -14 -13 -23 0 -5 8 -10 29 -10 46 0 18 -7
45 -15 60 -8 16 -15 38 -16 49 0 11 -11 40 -24 65 -51 96 -65 126 -65 147 0
12 -6 26 -14 30 -23 14 -76 118 -76 151 0 17 -4 34 -10 37 -5 3 -10 13 -10 20
0 25 27 5 45 -33 10 -20 22 -45 26 -54 5 -10 9 -24 9 -32 0 -7 7 -19 15 -26 8
-7 15 -25 15 -40 0 -18 6 -30 16 -32 11 -2 18 -15 19 -34 1 -18 19 -53 39 -80
59 -81 58 -80 68 -54 6 15 5 26 -3 30 -6 4 -12 20 -12 36 -1 16 -6 32 -12 36
-5 4 -10 22 -10 40 0 28 -3 33 -21 31 -20 -2 -21 0 -10 22 6 14 17 25 24 25 6
0 12 7 12 15 0 21 -27 19 -40 -2 -9 -16 -12 -15 -35 12 -35 42 -33 99 3 63 6
-6 15 -8 19 -4 5 4 0 13 -10 20 -9 7 -17 18 -17 25 0 6 -5 11 -11 11 -7 0 -9
10 -5 25 5 21 3 24 -15 22 -15 -1 -23 7 -33 33 -6 19 -24 53 -39 75 -30 44
-35 75 -12 75 9 0 15 9 15 25 0 30 37 85 57 85 10 0 12 -10 8 -37 l-6 -38 19
23 c11 12 25 22 30 22 16 0 31 -57 25 -93 -5 -32 -3 -34 28 -40 19 -3 43 -9
53 -13 17 -6 18 -4 13 23 -3 17 -1 35 5 41 6 6 7 18 3 29 -5 10 -7 22 -6 28 1
5 -4 14 -12 20 -7 5 -16 27 -20 48 l-6 38 31 -6 c21 -5 33 -3 39 6 14 22 11
31 -10 27 -33 -5 -91 81 -91 135 0 25 37 99 84 166 37 54 128 206 181 306 21
39 46 82 57 97 10 14 18 28 18 31 0 3 45 81 101 174 55 92 119 198 141 236 22
37 54 77 70 88 15 11 37 38 48 58 16 32 34 45 125 90 58 29 109 59 112 67 3 8
11 14 18 14 7 0 18 7 25 15 20 24 4 18 -68 -24 -77 -45 -143 -74 -150 -66 -7
6 38 55 51 55 9 0 99 63 123 85 6 6 9 15 7 22 -2 6 2 22 9 35 12 20 15 55 9
121 0 9 -8 17 -17 17 -10 0 -14 -5 -10 -15 7 -19 -34 -115 -58 -134 -16 -13
-17 -12 -11 15 6 26 20 67 40 114 13 32 32 57 84 110 148 152 302 452 300 585
l-1 50 -22 -67 c-11 -38 -26 -68 -31 -68 -7 0 -9 -15 -7 -35 3 -21 0 -35 -7
-35 -6 0 -11 -9 -11 -19 0 -11 -4 -23 -10 -26 -6 -4 -10 6 -10 24 0 16 5 33
10 36 13 8 13 45 -1 45 -5 0 -7 5 -4 10 10 17 -18 11 -52 -10 -24 -14 -33 -27
-33 -47 0 -15 -7 -46 -16 -70 -9 -23 -14 -49 -11 -58 9 -22 37 -19 37 5 0 14
7 20 21 20 12 0 28 8 35 18 13 16 13 16 14 -1 0 -18 -17 -52 -36 -74 -6 -6
-24 -32 -40 -57 -28 -44 -44 -57 -44 -36 0 6 -7 10 -15 10 -9 0 -15 9 -15 25
0 14 -4 25 -9 25 -13 0 -28 -46 -41 -125 -12 -75 -45 -155 -64 -155 -6 0 -16
11 -22 25 -9 19 -9 28 3 45 8 11 13 34 11 51 l-3 30 -19 -38 c-10 -21 -22 -46
-27 -55 -13 -26 -11 -45 7 -62 8 -9 12 -20 9 -26 -9 -15 -25 -12 -25 6 0 8 -4
12 -10 9 -5 -3 -10 -15 -10 -26 0 -10 -4 -27 -9 -37 -5 -9 -15 -38 -22 -64 -8
-30 -17 -44 -23 -38 -5 5 -5 20 2 37 6 15 20 62 32 103 12 41 30 95 40 120 10
25 30 86 45 135 15 50 31 94 36 99 13 14 24 -1 11 -16 -5 -7 -10 -24 -10 -38
0 -14 -3 -44 -7 -67 -10 -60 7 -54 29 10 10 28 29 66 42 84 13 18 27 47 31 65
3 18 12 42 20 53 7 11 13 46 13 82 l0 63 40 0 c37 0 48 7 112 69 70 68 71 70
62 103 -9 30 -13 33 -47 32 -48 -2 -49 20 -2 47 27 16 35 28 35 49 0 43 30
151 51 186 21 35 23 44 10 44 -4 0 -21 -19 -36 -41 -15 -23 -30 -37 -35 -33
-12 13 -14 46 -5 67 4 10 5 21 1 24 -8 9 -56 -37 -56 -53 0 -7 -9 -18 -20 -24
-18 -9 -20 -8 -20 15 0 33 27 75 49 75 10 0 30 14 47 31 l29 31 -27 -7 c-24
-6 -29 -3 -38 19 -15 40 8 155 70 352 6 17 10 88 10 159 0 140 -12 197 -61
301 -16 34 -29 70 -29 82 0 11 -4 22 -10 24 -5 2 -13 24 -16 51 -6 43 -5 47
15 47 11 0 21 5 21 10 0 6 -18 10 -40 10 -28 0 -40 4 -40 14 0 8 6 17 13 19 6
3 -5 6 -25 6 -32 1 -48 10 -54 31 -12 39 -19 50 -30 50 -8 0 -14 5 -14 10 0 6
5 10 12 10 6 0 1 11 -12 25 -13 14 -26 21 -30 16 -3 -6 -25 5 -49 24 -43 34
-71 48 -87 43 -5 -1 -22 6 -38 17 -24 16 -27 23 -23 52 3 18 2 33 -4 33 -21 0
-24 -2 -21 -16 2 -8 -2 -14 -8 -14 -5 0 -10 9 -10 21 0 11 -13 34 -29 50 -29
28 -72 43 -163 56 -28 4 -38 10 -38 23 0 21 -19 30 -66 30 -20 0 -43 4 -52 9
-25 13 -151 21 -192 12z m260 -46 c0 -8 -2 -15 -4 -15 -2 0 -6 7 -10 15 -3 8
-1 15 4 15 6 0 10 -7 10 -15z m-640 -90 c7 -9 9 -19 5 -23 -4 -4 -10 -1 -12 6
-3 6 -21 12 -41 12 -28 0 -33 3 -22 10 22 14 56 12 70 -5z m-100 -5 c0 -5 -6
-10 -14 -10 -8 0 -23 -3 -33 -7 -16 -6 -16 -5 -4 10 15 18 51 23 51 7z m655
-57 c12 -18 20 -22 29 -14 10 8 17 7 25 -3 10 -12 9 -13 -8 -9 -15 4 -21 1
-21 -12 0 -27 -20 -13 -47 33 -18 31 -21 41 -10 36 9 -3 23 -17 32 -31z m102
-5 c-3 -7 -5 -2 -5 12 0 14 2 19 5 13 2 -7 2 -19 0 -25z m-1007 -15 c0 -10
-32 -43 -41 -43 -5 0 -3 11 3 25 10 22 38 36 38 18z m792 -61 c20 -44 20 -46
2 -59 -18 -13 -19 -11 -25 34 -4 26 -10 57 -15 67 -16 41 19 3 38 -42z m-732
14 c0 -3 -29 -20 -65 -39 -65 -35 -90 -35 -37 -1 56 37 102 55 102 40z m1095
-34 c-6 -7 -35 18 -35 31 0 5 9 2 20 -8 11 -10 18 -20 15 -23z m215 -77 c7 -9
10 -18 6 -22 -3 -3 -6 -2 -6 4 0 6 -10 13 -22 17 -13 3 -28 14 -35 25 -11 18
-11 18 17 5 15 -8 34 -21 40 -29z m69 36 c7 -5 12 -13 10 -19 -2 -6 -14 -2
-28 9 -23 19 -9 27 18 10z m-320 -50 c27 -15 36 -14 23 2 -7 8 -7 18 -2 27 11
17 8 20 54 -53 42 -66 39 -92 -4 -44 -28 31 -29 31 -30 9 0 -13 5 -32 10 -43
8 -14 7 -19 -2 -19 -19 0 -58 41 -58 61 0 10 -14 26 -31 34 -29 15 -30 18 -15
34 9 10 16 24 17 32 0 8 4 4 9 -8 5 -12 18 -26 29 -32z m111 34 c0 -8 -2 -15
-4 -15 -2 0 -6 7 -10 15 -3 8 -1 15 4 15 6 0 10 -7 10 -15z m288 -19 c-2 -1
-12 -8 -22 -16 -18 -14 -19 -14 -7 8 7 12 17 20 22 16 6 -3 9 -7 7 -8z m-173
-36 c22 0 28 -20 10 -33 -15 -11 -13 -17 18 -57 19 -25 50 -58 68 -75 52 -45
99 -107 99 -130 -1 -20 -1 -20 -11 0 -15 26 -120 125 -134 125 -18 0 -63 102
-68 155 -3 28 -3 42 0 33 2 -10 11 -18 18 -18z m-464 -10 c23 -19 23 -19 4
-20 -21 0 -45 17 -45 32 0 14 17 9 41 -12z m-799 -51 c-3 -40 -15 -54 -36 -46
-21 8 -20 32 2 62 23 32 38 25 34 -16z m873 11 c-3 -5 -11 -10 -16 -10 -6 0
-7 5 -4 10 3 6 11 10 16 10 6 0 7 -4 4 -10z m329 -25 c9 -19 21 -37 26 -40 6
-3 10 -10 10 -16 0 -14 -26 -11 -39 5 -6 7 -22 11 -36 8 -31 -5 -34 17 -4 25
16 4 19 11 15 29 -9 36 9 29 28 -11z m-190 9 c4 -10 1 -14 -6 -12 -15 5 -23
28 -10 28 5 0 13 -7 16 -16z m-131 -63 c26 -21 21 -31 -10 -19 -16 6 -39 25
-53 41 l-25 31 35 -19 c19 -11 43 -26 53 -34z m-190 -14 c-8 -13 -33 14 -33
37 0 20 1 20 19 -4 11 -13 17 -28 14 -33z m752 43 c3 -5 1 -10 -4 -10 -6 0
-11 5 -11 10 0 6 2 10 4 10 3 0 8 -4 11 -10z m-685 -10 c5 0 19 -14 31 -32 21
-29 21 -31 3 -24 -10 5 -26 9 -34 9 -17 0 -39 26 -40 46 0 8 6 11 16 7 9 -3
19 -6 24 -6z m-1190 -9 c0 -6 -4 -13 -10 -16 -5 -3 -10 1 -10 9 0 9 5 16 10
16 6 0 10 -4 10 -9z m1437 -31 c3 -17 10 -33 14 -36 5 -3 9 -14 9 -24 0 -30
31 -114 45 -122 20 -12 77 -118 73 -136 -2 -11 -20 10 -46 55 -24 40 -51 77
-62 83 -17 9 -26 39 -55 178 -4 21 -3 32 4 32 7 0 14 -14 18 -30z m213 -20 c0
-25 -16 -26 -30 -1 -17 32 -13 43 10 31 11 -6 20 -20 20 -30z m198 20 c7 -11
23 -20 37 -20 14 0 25 -4 25 -10 0 -5 21 -29 46 -54 26 -24 44 -49 40 -55 -11
-17 -33 -2 -62 45 -15 24 -37 47 -47 50 -23 7 -67 44 -67 56 0 15 15 8 28 -12z
m150 -18 c9 -10 18 -33 20 -52 3 -40 0 -38 -33 23 -25 48 -19 62 13 29z
m-1718 -12 c0 -5 -4 -10 -10 -10 -5 0 -10 5 -10 10 0 6 5 10 10 10 6 0 10 -4
10 -10z m830 -52 c0 -10 -4 -18 -10 -18 -5 0 -10 15 -10 33 0 24 3 28 10 17 5
-8 10 -23 10 -32z m434 28 c11 4 27 -18 39 -56 3 -8 6 -3 6 13 1 15 5 27 10
27 20 0 148 -177 136 -188 -8 -8 -57 48 -86 98 l-20 35 5 -30 c2 -16 6 -39 9
-50 2 -11 2 -15 0 -8 -2 7 -12 15 -21 18 -9 3 -27 28 -40 55 -21 47 -30 55
-59 51 -8 -1 -13 9 -13 26 0 20 3 24 11 16 6 -6 17 -9 23 -7z m-134 -116 c0
-8 14 -24 30 -35 29 -19 76 -92 66 -102 -9 -9 -118 113 -138 154 -11 23 -26
47 -34 54 -8 6 -14 19 -14 28 0 20 89 -78 90 -99z m-410 30 c7 -22 21 -42 32
-45 11 -4 18 -16 18 -32 0 -34 -19 -26 -50 21 -24 37 -25 37 -30 15 l-6 -24
-12 22 c-11 19 -9 24 8 33 16 9 18 15 10 36 -13 34 -13 39 3 25 8 -6 20 -29
27 -51z m-200 24 c0 -8 9 -14 20 -14 33 0 62 -107 33 -117 -8 -3 -13 4 -13 15
0 11 -16 43 -35 72 -19 29 -32 56 -29 61 7 13 24 1 24 -17z m389 -65 c17 -28
31 -55 31 -60 0 -21 -21 -6 -46 32 -16 25 -31 39 -39 35 -17 -6 -29 10 -21 29
11 30 43 15 75 -36z m-909 -26 c0 -5 -5 -15 -10 -23 -8 -12 -10 -11 -10 8 0
12 5 22 10 22 6 0 10 -3 10 -7z m710 -24 c0 -11 -4 -17 -10 -14 -5 3 -10 13
-10 21 0 8 5 14 10 14 6 0 10 -9 10 -21z m354 -49 c26 -33 41 -60 34 -60 -24
1 -108 120 -84 120 1 0 24 -27 50 -60z m46 9 c0 -5 -4 -9 -10 -9 -5 0 -10 7
-10 16 0 8 5 12 10 9 6 -3 10 -10 10 -16z m-650 -19 c0 -5 -4 -10 -10 -10 -5
0 -10 5 -10 10 0 6 5 10 10 10 6 0 10 -4 10 -10z m620 -80 c0 -11 -2 -20 -5
-20 -2 0 -9 9 -15 20 -9 16 -8 20 5 20 8 0 15 -9 15 -20z m-43 -182 c-3 -8 -6
-5 -6 6 -1 11 2 17 5 13 3 -3 4 -12 1 -19z m23 -28 c0 -5 -2 -10 -4 -10 -3 0
-8 5 -11 10 -3 6 -1 10 4 10 6 0 11 -4 11 -10z m-452 -65 c-3 -3 -9 2 -12 12
-6 14 -5 15 5 6 7 -7 10 -15 7 -18z m190 -76 c-6 -16 -8 -33 -4 -36 3 -4 6 -1
6 5 0 6 9 16 21 22 20 11 20 11 4 -20 -9 -18 -15 -40 -12 -50 10 -37 -23 -8
-35 31 -9 31 -9 44 2 64 18 33 31 22 18 -16z m-178 -14 c0 -17 -2 -17 -10 -5
-5 8 -10 24 -10 35 0 17 2 17 10 5 5 -8 10 -24 10 -35z m-120 -4 c0 -6 -4 -13
-10 -16 -5 -3 -10 1 -10 9 0 9 5 16 10 16 6 0 10 -4 10 -9z m159 -57 c28 -47
26 -63 -4 -34 -14 13 -25 34 -25 47 0 31 4 29 29 -13z m81 5 c0 -5 11 -26 25
-46 13 -20 22 -39 19 -42 -3 -3 -9 1 -14 9 -5 8 -15 15 -22 15 -7 0 -12 8 -12
18 1 9 -2 17 -7 17 -5 0 -9 9 -9 20 0 11 5 20 10 20 6 0 10 -5 10 -11z m-263
-41 c-3 -8 -6 -5 -6 6 -1 11 2 17 5 13 3 -3 4 -12 1 -19z m250 -84 c-4 -4 -14
1 -22 12 -22 29 -18 41 7 17 12 -13 19 -26 15 -29z m17 -30 c3 -8 2 -12 -4 -9
-6 3 -10 10 -10 16 0 14 7 11 14 -7z m1076 -194 c0 -5 -4 -10 -10 -10 -5 0
-10 5 -10 10 0 6 5 10 10 10 6 0 10 -4 10 -10z m-20 -330 c7 -17 11 -33 8 -35
-9 -9 -50 43 -43 54 11 18 22 12 35 -19z m-2020 -680 c0 -5 -4 -10 -10 -10 -5
0 -10 5 -10 10 0 6 5 10 10 10 6 0 10 -4 10 -10z m26 -62 c36 -13 54 -38 28
-38 -19 0 -74 31 -74 42 0 11 8 10 46 -4z m12 -78 c23 -16 53 -30 66 -30 14 0
27 -4 30 -9 4 -5 -25 -9 -65 -9 -77 1 -99 13 -99 54 0 32 18 30 68 -6z m1530
-195 c0 -14 -4 -28 -9 -31 -5 -3 -9 9 -9 25 0 17 4 31 9 31 5 0 9 -11 9 -25z
m-58 -62 c0 -5 -5 -15 -10 -23 -8 -12 -10 -11 -10 8 0 12 5 22 10 22 6 0 10
-3 10 -7z m-1309 -13 c5 0 9 -4 9 -10 0 -14 -13 -12 -36 6 -17 14 -17 15 -1
10 10 -3 23 -6 28 -6z m1042 -47 c-7 -2 -21 -2 -30 0 -10 3 -4 5 12 5 17 0 24
-2 18 -5z m85 0 c-10 -2 -26 -2 -35 0 -10 3 -2 5 17 5 19 0 27 -2 18 -5z m761
-985 l-2 -63 -7 50 c-6 46 -4 75 6 75 2 0 3 -28 3 -62z m75 40 c3 -13 6 -36 6
-53 0 -23 7 -33 27 -42 36 -17 39 -10 13 27 -14 20 -19 36 -14 48 6 14 9 12
12 -10 2 -16 7 -28 11 -28 10 0 81 -104 99 -144 15 -35 8 -47 -9 -14 -23 43
-64 88 -80 88 -9 0 -22 7 -30 16 -12 14 -14 14 -26 -2 -8 -10 -11 -33 -8 -58
4 -33 3 -36 -4 -15 -14 43 -25 209 -13 209 5 0 12 -10 16 -22z m-77 -160 c-2
-13 -4 -5 -4 17 -1 22 1 32 4 23 2 -10 2 -28 0 -40z m-3117 -35 c0 -13 3 -13
15 -3 13 11 15 8 15 -19 0 -40 -14 -40 -34 1 -18 36 -20 52 -6 43 6 -3 10 -13
10 -22z m-25 -113 c-4 -11 -11 -20 -17 -20 -5 0 -7 7 -4 16 3 9 6 25 6 37 1
20 2 20 11 4 6 -9 7 -26 4 -37z m89 18 c9 -12 16 -26 16 -31 0 -13 -29 12 -41
35 -14 26 6 23 25 -4z m3139 -75 c12 -43 12 -53 1 -53 -19 0 -26 16 -29 71 -3
60 7 53 28 -18z m-3089 21 c9 -24 7 -28 -9 -14 -17 14 -20 30 -6 30 5 0 12 -7
15 -16z m2823 -7 c-3 -8 -8 -39 -12 -70 -5 -41 -11 -54 -21 -50 -8 3 -12 14
-9 27 4 17 12 67 14 99 1 4 8 7 17 7 9 0 14 -6 11 -13z m-2983 -36 c8 -12 -3
-41 -15 -41 -5 0 -9 11 -9 25 0 25 14 34 24 16z m3474 -40 c-16 -26 -38 -35
-38 -16 0 14 40 48 48 41 2 -2 -2 -13 -10 -25z m-3302 -7 c-4 -9 -9 -15 -11
-12 -3 3 -3 13 1 22 4 9 9 15 11 12 3 -3 3 -13 -1 -22z m-204 -121 c-16 -47
-32 -57 -32 -20 0 13 -5 28 -11 34 -8 8 -8 19 2 41 7 17 16 29 20 26 4 -2 11
1 16 8 15 25 19 -46 5 -89z m338 83 c0 -16 -18 -31 -27 -22 -8 8 5 36 17 36 5
0 10 -6 10 -14z m3104 -9 c-5 -13 -84 -63 -84 -53 0 15 14 36 25 36 7 0 18 7
25 15 15 19 41 20 34 2z m-3074 -86 c0 -10 -7 -6 -20 14 -11 17 -20 35 -20 40
1 17 40 -36 40 -54z m2590 -20 c0 -12 -20 -25 -27 -18 -7 7 6 27 18 27 5 0 9
-4 9 -9z m-2548 -28 c13 -16 40 -50 59 -78 19 -27 38 -53 44 -57 5 -4 6 -10 2
-14 -3 -4 4 -16 16 -28 33 -30 99 -126 95 -137 -4 -11 -97 100 -118 140 -6 13
-32 49 -56 81 -24 32 -44 62 -44 66 0 4 -10 18 -22 31 -12 13 -17 23 -12 23 6
0 22 -12 36 -27z m2488 7 c0 -4 -6 -15 -14 -26 -17 -22 -41 -8 -31 17 5 14 45
21 45 9z m-3003 -22 c-3 -8 -6 -5 -6 6 -1 11 2 17 5 13 3 -3 4 -12 1 -19z
m1145 0 c-7 -7 -12 -8 -12 -2 0 14 12 26 19 19 2 -3 -1 -11 -7 -17z m1910 -30
c-7 -7 -12 -8 -12 -2 0 14 12 26 19 19 2 -3 -1 -11 -7 -17z m-2988 -4 c3 -9 3
-21 -1 -27 -11 -18 -16 -67 -16 -153 0 -67 -2 -81 -15 -80 -9 1 -19 -12 -24
-31 -5 -18 -13 -33 -19 -33 -7 0 -9 -10 -5 -25 5 -19 3 -23 -9 -19 -19 8 -20
54 -1 54 17 0 29 92 14 101 -7 5 -8 32 -5 75 4 38 7 75 7 82 0 6 6 12 14 12 8
0 16 -6 19 -12 2 -8 8 -9 13 -4 5 5 4 11 -3 13 -16 6 -17 35 -1 51 16 16 25
15 32 -4z m2776 -18 c0 -3 -4 -8 -10 -11 -5 -3 -10 -1 -10 4 0 6 5 11 10 11 6
0 10 -2 10 -4z m-450 -54 c0 -13 -3 -12 -15 4 -19 25 -19 40 0 24 8 -7 15 -20
15 -28z m-2693 -14 c-3 -8 -6 -5 -6 6 -1 11 2 17 5 13 3 -3 4 -12 1 -19z
m2183 -18 c0 -5 -4 -10 -10 -10 -5 0 -10 5 -10 10 0 6 5 10 10 10 6 0 10 -4
10 -10z m-753 -102 c-3 -7 -5 -2 -5 12 0 14 2 19 5 13 2 -7 2 -19 0 -25z
m2672 -8 c3 -25 3 -25 -18 -6 -26 23 -27 39 -3 34 9 -2 19 -14 21 -28z m-2682
-52 c-3 -7 -5 -2 -5 12 0 14 2 19 5 13 2 -7 2 -19 0 -25z m2593 -2 c0 -11 -19
-15 -25 -6 -3 5 1 10 9 10 9 0 16 -2 16 -4z m-3730 -26 c0 -5 -4 -10 -10 -10
-5 0 -10 5 -10 10 0 6 5 10 10 10 6 0 10 -4 10 -10z m809 -51 c19 -22 31 -42
28 -45 -8 -8 -61 45 -70 69 -10 27 5 19 42 -24z m321 0 c0 -11 -4 -17 -10 -14
-5 3 -10 13 -10 21 0 8 5 14 10 14 6 0 10 -9 10 -21z m2440 -27 c-38 -4 -63
14 -40 28 9 6 24 3 43 -8 l29 -17 -32 -3z m-3910 -17 c0 -8 -4 -15 -8 -15 -5
0 -9 7 -9 15 0 8 4 15 9 15 4 0 8 -7 8 -15z m-30 -25 c0 -5 -4 -10 -10 -10 -5
0 -10 5 -10 10 0 6 5 10 10 10 6 0 10 -4 10 -10z m30 -10 c0 -5 -2 -10 -4 -10
-3 0 -8 5 -11 10 -3 6 -1 10 4 10 6 0 11 -4 11 -10z m330 1 c3 -1 -1 -5 -9
-10 -11 -7 -14 -31 -14 -94 2 -77 0 -85 -19 -90 -18 -5 -19 -11 -14 -69 13
-154 13 -199 -4 -196 -8 2 -17 14 -18 27 -2 13 -7 19 -10 14 -4 -6 -8 45 -9
113 -3 108 -1 124 15 133 12 8 14 13 5 18 -16 11 -28 63 -14 63 6 0 11 15 11
34 0 53 7 64 43 61 18 -2 34 -3 37 -4z m1116 -39 c-12 -11 -18 7 -10 30 l8 23
4 -23 c2 -13 1 -26 -2 -30z m-1483 -29 c-4 -10 -9 -11 -16 -4 -5 5 -7 18 -3
28 6 14 9 15 16 4 4 -8 6 -21 3 -28z m55 -25 c-4 -29 -38 -38 -38 -10 0 19 11
29 33 31 5 1 7 -9 5 -21z m1408 -46 c-12 -12 -18 8 -10 35 l8 28 4 -28 c2 -16
1 -31 -2 -35z m1914 40 c0 -5 -6 -16 -13 -27 -10 -13 -21 -16 -40 -11 -33 8
-34 18 -4 32 27 14 57 17 57 6z m-134 -27 c4 -8 15 -15 25 -15 10 0 19 -7 19
-15 0 -9 10 -19 22 -24 18 -6 7 -9 -42 -13 -75 -6 -100 1 -76 21 9 8 16 24 16
37 0 27 27 33 36 9z m-3106 -25 c0 -11 -4 -20 -10 -20 -5 0 -10 9 -10 20 0 11
5 20 10 20 6 0 10 -9 10 -20z m-130 -50 c0 -5 -7 -10 -15 -10 -8 0 -15 5 -15
10 0 6 7 10 15 10 8 0 15 -4 15 -10z m3170 -14 c0 -19 -37 -27 -69 -14 l-26
11 30 7 c48 12 65 11 65 -4z m172 -22 c-2 -10 -11 -35 -20 -54 -11 -25 -17
-30 -20 -18 -3 16 -5 16 -29 1 -19 -13 -26 -14 -33 -4 -10 17 -60 -14 -60 -37
0 -8 -8 -21 -17 -28 -23 -16 -8 -32 16 -17 42 27 34 -36 -10 -81 -16 -15 -26
-32 -23 -37 7 -13 24 -11 24 2 0 6 13 24 29 40 53 53 62 38 32 -50 -11 -31
-29 -90 -41 -131 -12 -41 -24 -82 -28 -90 -3 -8 -6 -23 -7 -32 -1 -10 -7 -23
-13 -30 -5 -7 -12 -24 -14 -38 -2 -18 -10 -26 -29 -28 -21 -2 -28 2 -33 22 -3
15 -13 26 -22 26 -11 0 -14 -6 -8 -22 10 -34 24 -48 49 -48 19 0 21 -4 17 -27
-6 -37 -27 -60 -61 -66 -16 -3 -31 -14 -35 -23 -8 -21 2 -33 14 -15 12 21 40
5 40 -22 0 -35 -19 -46 -69 -43 -38 3 -44 0 -52 -22 -18 -48 6 -67 40 -33 14
14 16 21 8 25 -7 2 -2 5 10 5 18 1 23 -6 28 -34 3 -19 8 -52 11 -72 3 -22 23
-61 47 -93 55 -71 66 -91 67 -116 0 -20 -5 -21 -137 -22 -161 -2 -303 14 -303
33 0 14 58 70 143 135 31 25 57 48 57 52 0 5 7 8 15 8 8 0 15 2 15 5 0 17 -36
73 -59 93 l-26 22 23 16 c16 12 22 26 22 55 0 34 20 69 38 69 4 0 16 16 27 36
18 33 18 37 3 48 -22 16 -12 66 13 66 15 0 19 7 19 32 0 19 9 41 22 55 12 13
19 26 15 29 -4 4 -15 -4 -25 -16 -24 -30 -48 -19 -30 13 6 12 17 27 24 32 18
14 -8 91 -41 123 -33 30 -57 28 -84 -9 -13 -17 -25 -28 -28 -25 -3 2 9 20 26
38 17 18 31 43 31 54 0 12 10 28 23 37 12 8 45 44 72 79 39 52 58 68 97 82 27
9 53 14 60 10 6 -4 17 1 24 11 7 10 20 15 28 12 9 -4 31 0 49 8 19 8 37 11 40
8 4 -3 9 2 13 11 9 22 30 14 26 -10z m-355 -33 c31 -31 36 -41 23 -44 -10 -3
-24 7 -36 24 -10 16 -27 32 -37 35 -16 5 -15 24 2 24 5 0 26 -18 48 -39z m48
19 c10 -11 14 -20 9 -20 -12 1 -44 25 -44 34 0 12 17 6 35 -14z m-2925 -34 c0
-8 3 -21 6 -30 4 -11 1 -16 -10 -16 -11 0 -16 9 -16 30 0 17 5 30 10 30 6 0
10 -6 10 -14z m2530 -16 c9 -17 6 -23 -22 -40 -37 -22 -58 -26 -58 -9 0 7 -10
5 -25 -5 -33 -22 -38 -20 -22 10 16 31 64 64 94 64 12 0 27 -9 33 -20z m1263
-7 c-7 -3 -13 -15 -13 -28 0 -29 -16 -41 -24 -18 -7 17 32 68 43 57 3 -4 0 -9
-6 -11z m-435 -5 c15 -15 16 -28 2 -28 -5 0 -10 6 -10 14 0 8 -6 17 -12 19 -7
3 -8 6 -2 6 5 1 15 -4 22 -11z m-612 -35 c-10 -10 -19 5 -10 18 6 11 8 11 12
0 2 -7 1 -15 -2 -18z m434 -8 c0 -8 -4 -15 -10 -15 -5 0 -10 7 -10 15 0 8 5
15 10 15 6 0 10 -7 10 -15z m686 -42 c15 2 24 0 24 -8 0 -7 14 -15 31 -17 23
-4 34 1 49 19 11 14 24 21 34 17 23 -9 20 -17 -12 -41 -38 -28 -144 -38 -197
-18 -36 13 -38 15 -17 21 23 7 29 19 12 29 -17 10 -11 25 9 25 11 0 23 6 28
13 5 8 9 2 11 -17 3 -24 7 -27 28 -23z m-1095 19 c-14 -25 -50 -56 -58 -49 -7
7 46 66 60 67 4 0 3 -8 -2 -18z m605 -55 c20 -11 17 -27 -5 -27 -10 0 -25 -10
-34 -22 -25 -40 -86 -102 -93 -96 -5 6 18 36 88 111 20 22 25 33 18 42 -6 7
-7 21 -3 31 7 17 8 16 11 -6 2 -14 10 -29 18 -33z m704 39 c0 -3 -4 -8 -10
-11 -5 -3 -10 -1 -10 4 0 6 5 11 10 11 6 0 10 -2 10 -4z m-1653 -28 c-3 -8 -6
-5 -6 6 -1 11 2 17 5 13 3 -3 4 -12 1 -19z m360 -35 c-3 -2 -16 -3 -28 -1
l-24 3 25 23 25 23 3 -21 c2 -12 1 -24 -1 -27z m-2847 17 c0 -5 -4 -10 -10
-10 -5 0 -10 5 -10 10 0 6 5 10 10 10 6 0 10 -4 10 -10z m104 -5 c3 -9 0 -15
-9 -15 -8 0 -15 7 -15 15 0 8 4 15 9 15 5 0 11 -7 15 -15z m134 -87 c0 -31 -4
-38 -20 -38 -18 0 -19 4 -12 38 4 20 7 48 7 62 l-1 25 13 -25 c8 -14 13 -42
13 -62z m3552 58 c0 -3 -4 -8 -10 -11 -5 -3 -10 -1 -10 4 0 6 5 11 10 11 6 0
10 -2 10 -4z m-3800 -20 c0 -2 3 -11 6 -20 5 -12 0 -16 -20 -16 -28 0 -29 1
-20 24 5 14 34 24 34 12z m2730 -66 c0 -5 -4 -10 -10 -10 -5 0 -10 5 -10 10 0
6 5 10 10 10 6 0 10 -4 10 -10z m1105 -10 c-3 -5 -11 -10 -16 -10 -6 0 -7 5
-4 10 3 6 11 10 16 10 6 0 7 -4 4 -10z m-3827 -12 c14 -17 3 -68 -14 -68 -8 0
-14 -5 -14 -11 0 -6 -7 -4 -15 4 -11 11 -12 22 -4 51 10 37 28 46 47 24z
m3282 -8 c0 -5 -2 -10 -4 -10 -3 0 -8 5 -11 10 -3 6 -1 10 4 10 6 0 11 -4 11
-10z m415 -15 c-16 -8 -39 -14 -50 -14 -18 0 -17 1 5 14 14 8 36 14 50 14 24
-1 24 -1 -5 -14z m-469 -27 c-11 -15 -16 -18 -16 -7 0 16 21 42 28 34 2 -2 -3
-14 -12 -27z m388 13 c3 -5 -8 -11 -25 -15 -51 -10 -66 -6 -34 9 36 16 52 18
59 6z m-3510 -24 c20 -20 13 -61 -11 -65 -15 -2 -22 4 -26 24 -9 48 10 69 37
41z m3136 -88 c0 -5 -7 -9 -15 -9 -8 0 -15 7 -15 15 0 9 6 12 15 9 8 -4 15
-10 15 -15z m90 17 c0 -2 -7 -7 -16 -10 -8 -3 -12 -2 -9 4 6 10 25 14 25 6z
m5 -66 c-3 -5 -15 -10 -26 -10 -11 0 -17 5 -14 10 3 6 15 10 26 10 11 0 17 -4
14 -10z m-3335 -281 c0 -16 -7 -19 -45 -19 -36 0 -45 3 -45 18 0 13 9 17 45
19 38 1 45 -1 45 -18z m-110 -289 c0 -5 -4 -10 -10 -10 -5 0 -10 5 -10 10 0 6
5 10 10 10 6 0 10 -4 10 -10z m1002 -45 c-2 -14 -10 -25 -18 -25 -19 0 -54
-41 -54 -63 0 -19 1 -19 19 -3 11 10 17 24 14 32 -3 8 1 14 10 14 11 0 15 -12
16 -42 3 -89 20 -274 30 -317 5 -25 13 -71 16 -101 3 -30 15 -75 26 -99 10
-24 19 -49 19 -55 0 -11 50 -136 80 -199 16 -33 3 -130 -30 -232 -32 -101 -67
-234 -90 -350 -11 -60 -30 -139 -40 -175 -11 -36 -24 -99 -29 -140 -10 -81
-18 -116 -50 -225 -12 -38 -21 -81 -21 -95 0 -14 -7 -50 -15 -80 -40 -140 -43
-161 -32 -196 8 -28 7 -41 -6 -70 -15 -30 -17 -72 -17 -289 0 -252 -3 -286
-41 -436 -10 -41 -19 -97 -19 -123 0 -46 -40 -209 -62 -250 -6 -12 -26 -38
-44 -59 -19 -20 -34 -43 -34 -50 0 -8 -11 -24 -24 -36 -14 -13 -30 -37 -37
-54 -17 -44 -38 -67 -61 -67 -18 0 -18 -1 -3 -16 21 -21 122 -155 165 -219 46
-67 191 -263 224 -300 31 -36 16 -46 -25 -16 -15 11 -42 21 -59 21 -33 0 -35
3 -20 30 14 27 -22 69 -46 54 -39 -24 -40 -40 -1 -83 20 -22 46 -58 57 -81 22
-44 40 -170 23 -170 -5 0 -22 14 -38 30 -21 22 -38 30 -63 30 -30 0 -70 14
-82 29 -3 4 -17 14 -32 24 -15 9 -30 27 -33 40 -6 22 -61 67 -83 67 -16 0 -80
38 -135 82 -27 21 -53 38 -58 38 -5 0 -20 10 -35 22 -14 13 -29 22 -32 21 -4
0 -15 3 -25 9 -13 6 -23 5 -34 -4 -14 -11 -16 -10 -11 15 5 25 3 27 -31 28
-73 1 -163 9 -172 14 -13 9 -11 35 4 35 6 0 21 -7 31 -15 11 -8 28 -15 37 -15
26 0 13 34 -32 80 -41 42 -46 54 -29 65 19 12 -8 33 -40 31 -16 -1 -32 -4 -36
-8 -3 -4 -15 -3 -25 2 -13 7 -22 5 -34 -7 -15 -15 -15 -17 -1 -25 9 -5 16 -22
16 -38 0 -25 7 -32 45 -49 32 -14 45 -26 45 -40 0 -25 -13 -27 -30 -6 -14 17
-67 45 -86 45 -7 0 -17 -8 -23 -17 -8 -15 -12 -12 -26 22 -9 22 -23 54 -30 70
-8 17 -19 48 -24 70 -6 22 -20 55 -31 72 -11 18 -17 40 -13 49 4 10 0 22 -10
29 -17 12 -38 99 -42 175 -1 25 -6 53 -10 63 -4 10 -5 44 -1 76 5 46 3 61 -9
71 -13 11 -12 15 8 40 22 27 47 30 47 5 0 -6 9 -20 19 -29 11 -10 26 -40 35
-67 27 -83 62 -151 110 -214 25 -33 46 -65 46 -71 0 -21 36 -42 96 -58 34 -9
72 -15 85 -15 14 1 5 6 -23 13 -26 6 -55 18 -64 27 -14 15 -14 20 -1 45 8 16
17 65 21 109 3 44 11 123 17 175 5 52 10 110 9 127 -1 36 20 83 57 128 21 25
24 35 18 70 -12 66 -10 102 8 120 17 16 21 33 17 68 -2 21 27 151 39 175 5 9
14 46 21 82 6 35 17 76 25 90 11 23 91 338 130 519 9 40 22 83 29 95 8 11 16
44 19 73 3 28 15 69 25 90 25 49 34 102 33 183 -1 65 15 120 92 323 21 53 25
78 20 117 -3 27 -1 62 5 77 6 15 16 84 22 153 6 73 21 162 36 215 14 50 25
103 25 120 0 19 13 49 38 85 21 30 56 91 78 135 22 44 63 119 91 166 29 47 52
89 52 93 0 7 67 113 88 138 19 23 31 15 24 -17z m-1092 -185 c0 -5 -4 -10 -10
-10 -5 0 -10 5 -10 10 0 6 5 10 10 10 6 0 10 -4 10 -10z m3815 -170 c0 -22
-29 -18 -33 3 -3 14 1 18 15 15 10 -2 18 -10 18 -18z m-51 -35 c29 -26 32 -35
14 -35 -16 0 -48 31 -48 47 0 18 3 17 34 -12z m-3504 -200 c0 -8 -4 -15 -10
-15 -5 0 -10 7 -10 15 0 8 5 15 10 15 6 0 10 -7 10 -15z m3070 -205 c0 -13 -7
-20 -20 -20 -23 0 -26 10 -8 28 18 18 28 15 28 -8z m620 -135 c0 -8 -11 -17
-25 -21 -24 -6 -37 -44 -15 -44 6 0 10 -7 10 -15 0 -8 -4 -15 -10 -15 -5 0
-10 6 -10 14 0 7 -9 16 -20 19 -26 7 -26 27 0 34 10 3 22 14 25 24 7 22 45 26
45 4z m-850 -195 c0 -5 -9 -10 -20 -10 -11 0 -20 5 -20 10 0 6 9 10 20 10 11
0 20 -4 20 -10z m-1013 -56 c-9 -9 -28 6 -21 18 4 6 10 6 17 -1 6 -6 8 -13 4
-17z m1870 -120 c-9 -9 -28 6 -21 18 4 6 10 6 17 -1 6 -6 8 -13 4 -17z m-2007
-154 c12 -23 5 -26 -16 -6 -16 17 -18 26 -4 26 5 0 14 -9 20 -20z m70 -40 c13
-9 13 -10 0 -10 -8 0 -22 5 -30 10 -13 9 -13 10 0 10 8 0 22 -5 30 -10z m240
-95 c9 -11 10 -15 1 -15 -7 0 -19 7 -27 15 -13 13 -13 15 -1 15 8 0 20 -7 27
-15z m889 -621 c2 -2 -7 -4 -22 -4 -14 0 -29 5 -32 10 -6 10 42 4 54 -6z
m-2249 -1334 c-8 -5 -17 -7 -19 -4 -3 3 1 9 9 14 8 5 17 7 19 4 3 -3 -1 -9 -9
-14z m-60 -55 c7 -9 8 -15 2 -15 -5 0 -12 7 -16 15 -3 8 -4 15 -2 15 2 0 9 -7
16 -15z m-330 -765 c0 -5 -4 -10 -9 -10 -6 0 -13 5 -16 10 -3 6 1 10 9 10 9 0
16 -4 16 -10z m113 -35 c-4 -15 -56 -12 -61 3 -3 10 5 13 29 10 19 -2 33 -7
32 -13z m1499 9 c5 8 15 6 35 -5 17 -10 64 -19 121 -23 115 -7 149 -21 187
-77 16 -24 52 -69 80 -100 27 -31 59 -72 69 -93 24 -45 106 -132 168 -177 26
-19 50 -40 53 -47 8 -21 -4 -34 -26 -27 -11 4 -26 2 -33 -4 -9 -8 -26 -7 -59
3 -44 13 -47 13 -47 -4 0 -11 5 -22 10 -25 6 -3 10 -10 10 -14 0 -8 -82 -30
-130 -35 -14 -1 -42 -10 -62 -19 -42 -19 -103 -22 -113 -6 -4 6 -28 9 -53 7
-37 -2 -47 0 -50 13 -2 11 6 19 22 23 27 7 38 46 14 46 -16 -1 -48 -24 -48
-35 0 -19 -53 -55 -81 -55 -19 0 -37 -8 -47 -21 -14 -17 -24 -19 -60 -13 -24
4 -62 20 -85 35 -30 21 -54 29 -87 29 -60 0 -81 13 -49 31 15 8 72 14 154 15
107 3 137 7 169 23 24 13 49 18 63 15 35 -9 72 3 71 24 -1 9 2 39 6 65 7 47 7
48 -38 94 -25 25 -46 48 -46 50 0 2 10 8 23 13 17 7 18 9 5 9 -10 1 -18 7 -18
14 0 8 -18 33 -40 56 -22 23 -40 48 -40 56 0 8 -9 19 -20 25 -11 6 -20 18 -20
26 0 12 -10 15 -47 12 -41 -3 -49 0 -59 20 -20 39 -31 46 -39 23 -6 -20 -7
-20 -27 -2 -23 22 -17 41 15 41 12 0 28 4 35 9 7 4 34 4 60 1 31 -5 49 -4 54
4z m-1457 -209 c40 -25 149 -144 140 -154 -3 -2 -30 21 -61 53 -31 31 -58 55
-61 52 -6 -6 76 -118 90 -124 4 -2 7 -10 7 -17 0 -7 4 -15 8 -17 4 -1 23 -23
42 -48 19 -25 37 -47 40 -50 3 -3 25 -30 50 -60 92 -112 196 -223 188 -200
-22 62 -20 66 11 30 24 -27 29 -41 25 -62 -5 -26 -4 -28 25 -22 33 7 43 -10
19 -34 -30 -30 -39 -21 -260 241 -85 101 -218 282 -218 296 0 6 -4 11 -9 11
-5 0 -20 17 -32 38 -13 20 -31 46 -41 56 -38 41 -20 46 37 11z m572 -117 c51
-56 117 -101 151 -103 85 -6 111 -16 152 -63 23 -26 64 -72 93 -103 58 -61
158 -190 203 -259 38 -60 92 -124 109 -130 10 -3 11 -10 5 -20 -8 -13 -13 -13
-42 2 -18 10 -86 35 -151 58 -65 22 -130 49 -144 60 -14 11 -38 20 -54 20 -15
0 -31 5 -34 10 -3 6 -19 10 -36 10 -22 0 -29 5 -29 20 0 27 -71 61 -140 65
-30 2 -58 4 -62 4 -22 2 -39 59 -53 176 -8 72 -19 163 -25 204 -14 106 -4 115
57 49z m4293 -19 c0 -6 -4 -7 -10 -4 -5 3 -10 11 -10 16 0 6 5 7 10 4 6 -3 10
-11 10 -16z m48 -50 c2 -13 -8 -18 -42 -23 -36 -6 -46 -11 -46 -26 0 -11 9
-24 19 -30 26 -14 28 -13 34 10 3 14 10 18 22 14 13 -5 15 -18 13 -63 l-3 -56
-40 -9 c-50 -12 -50 -12 -35 -31 8 -9 21 -13 36 -9 28 7 34 -13 7 -23 -10 -4
-39 -26 -66 -49 -51 -46 -74 -52 -214 -57 -39 -1 -66 -5 -60 -9 15 -9 -18 -22
-38 -14 -19 7 -19 -11 -1 -46 8 -15 12 -29 8 -32 -15 -16 -30 -2 -41 37 -7 23
-19 57 -27 75 -16 35 -11 58 7 32 8 -13 12 -11 26 8 8 12 25 22 37 22 12 0 25
9 31 22 11 25 68 57 103 58 25 0 40 26 24 42 -6 6 -8 17 -5 24 3 8 0 14 -6 14
-6 0 -11 -7 -11 -16 0 -13 -5 -12 -27 6 -23 18 -29 19 -38 7 -15 -20 -50 -37
-61 -29 -33 25 -40 72 -9 72 20 0 39 -27 23 -33 -9 -4 -8 -6 3 -6 9 -1 21 11
28 26 8 17 15 23 22 16 15 -15 95 6 162 44 33 18 69 33 80 33 12 0 29 5 37 10
21 14 44 8 48 -11z m-4708 -9 c8 -5 12 -11 9 -14 -7 -8 -49 5 -49 15 0 12 21
11 40 -1z m-156 -27 c3 -8 3 -20 -1 -26 -4 -7 -6 -20 -4 -31 2 -15 -3 -14 -33
10 -20 16 -36 32 -36 37 0 11 28 9 35 -3 12 -19 26 0 15 20 -8 16 -7 18 4 14
8 -3 17 -12 20 -21z m184 -22 c3 -8 -1 -12 -9 -9 -7 2 -15 10 -17 17 -3 8 1
12 9 9 7 -2 15 -10 17 -17z m-248 -58 c11 -10 20 -23 20 -29 0 -6 7 -17 15
-24 9 -8 15 -9 15 -2 0 6 -4 14 -10 17 -5 3 -10 10 -10 16 0 15 56 -43 72 -76
14 -27 14 -32 -2 -48 -16 -16 -18 -16 -32 0 -23 26 -98 145 -98 155 0 12 8 10
30 -9z m4490 -48 c0 -8 -9 -15 -20 -15 -22 0 -27 15 -7 23 21 9 27 7 27 -8z
m409 -240 c1 -115 -13 -161 -62 -194 -111 -75 -138 -91 -152 -91 -8 0 -15 -4
-15 -8 0 -21 33 -71 49 -77 22 -7 71 10 71 25 0 5 6 10 14 10 17 0 33 -103 17
-108 -6 -2 -11 -15 -11 -28 0 -13 -4 -24 -10 -24 -5 0 -10 7 -10 15 0 9 -9 15
-22 15 -23 1 -58 21 -58 34 0 4 -7 14 -15 22 -8 9 -15 28 -15 44 0 20 -6 29
-22 34 -45 11 -60 7 -53 -14 5 -16 2 -20 -15 -20 -11 0 -35 -7 -51 -16 -65
-33 -38 4 101 139 105 101 144 145 142 160 -2 11 1 17 7 13 6 -4 27 -4 47 0
l36 7 -2 71 c-3 93 -2 96 14 96 10 0 14 -23 15 -105z m-53 13 c13 -37 11 -68
-3 -68 -10 0 -12 9 -7 35 5 28 3 35 -10 35 -9 0 -22 -12 -28 -27 -9 -23 -12
-25 -15 -10 -5 20 23 57 43 57 7 0 16 -10 20 -22z m-3506 -83 c0 -19 -36 -55
-54 -55 -8 0 -18 5 -22 11 -8 14 14 29 32 22 9 -3 11 2 7 16 -4 16 -1 21 16
21 12 0 21 -6 21 -15z m2834 -109 c-6 -16 -34 -29 -43 -20 -6 6 27 34 41 34 4
0 5 -6 2 -14z m-2093 -46 c37 -15 78 -21 146 -22 52 -1 97 -6 100 -11 3 -5 -4
-18 -14 -30 -11 -12 -27 -35 -37 -50 -9 -15 -27 -32 -39 -37 -49 -19 -174 -50
-197 -49 -14 0 -44 -6 -67 -15 -44 -16 -57 -15 -358 29 -55 7 -110 14 -122 15
-13 0 -23 6 -23 14 0 14 27 25 155 61 54 15 132 42 193 66 31 12 65 12 57 -1
-12 -19 41 -8 90 20 28 15 53 28 57 29 4 0 30 -8 59 -19z m-166 0 c-3 -5 -13
-10 -21 -10 -8 0 -12 5 -9 10 3 6 13 10 21 10 8 0 12 -4 9 -10z m2181 -61 c9
-15 -14 -29 -48 -29 -34 0 -37 17 -5 30 30 12 45 12 53 -1z m632 -241 c-3 -7
-20 -14 -39 -16 -32 -2 -33 -1 -15 13 24 18 59 20 54 3z m82 -18 c0 -8 -37
-90 -44 -96 -9 -9 -46 -13 -46 -5 0 6 7 11 16 11 11 0 14 5 10 16 -3 9 6 30
22 50 27 34 42 43 42 24z m-186 -25 c-14 -14 -36 -25 -50 -25 -33 0 -27 24 7
28 13 2 28 8 34 13 22 22 32 6 9 -16z m146 -125 c0 -11 -4 -20 -10 -20 -5 0
-10 9 -10 20 0 11 5 20 10 20 6 0 10 -9 10 -20z m-3009 -14 c19 -8 46 -24 61
-35 15 -12 51 -26 80 -32 47 -9 59 -8 113 15 33 13 63 21 66 18 3 -4 12 -32
19 -63 10 -45 10 -64 0 -93 l-12 -38 -52 3 c-28 2 -83 -2 -123 -10 l-72 -13
-56 56 c-67 68 -125 106 -184 121 -57 14 -62 31 -14 45 146 45 133 43 174 26z
m2924 -28 c7 -15 20 -24 40 -26 40 -5 48 -14 40 -51 -6 -29 -29 -43 -37 -21
-3 9 -93 22 -150 21 -53 -1 -29 38 47 77 50 26 48 26 60 0z m-295 -3 c0 -9 -6
-18 -14 -21 -8 -3 -16 -14 -19 -25 -6 -21 -51 -26 -77 -9 -13 9 -10 15 18 40
36 33 92 42 92 15z m215 -95 c3 -5 -1 -10 -10 -10 -9 0 -13 5 -10 10 3 6 8 10
10 10 2 0 7 -4 10 -10z m115 -162 c-4 -40 -15 -68 -26 -68 -8 0 -14 -5 -14
-10 0 -6 -11 -16 -25 -22 -14 -6 -25 -17 -25 -25 0 -7 -12 -18 -26 -23 -14 -6
-22 -14 -19 -20 4 -6 -7 -10 -24 -10 -30 0 -41 -13 -21 -25 16 -10 12 -25 -5
-19 -8 4 -15 1 -15 -5 0 -15 -26 -14 -60 4 -27 14 -29 18 -17 38 19 34 86 94
121 108 17 7 53 30 80 51 44 35 78 46 76 26z m-30 -152 c0 -18 -16 -29 -30
-21 -13 8 -1 35 16 35 8 0 14 -6 14 -14z m-23 -68 c-3 -7 -5 -2 -5 12 0 14 2
19 5 13 2 -7 2 -19 0 -25z m-237 -8 c0 -10 -31 -23 -38 -15 -8 7 19 35 29 29
5 -3 9 -9 9 -14z"/>
<path d="M7160 7466 c0 -14 10 -30 25 -40 27 -18 30 -15 16 12 -5 9 -12 25
-15 35 -8 25 -26 21 -26 -7z"/>
<path d="M7290 7384 c0 -8 5 -12 10 -9 6 3 10 10 10 16 0 5 -4 9 -10 9 -5 0
-10 -7 -10 -16z"/>
<path d="M7282 7332 c-8 -22 -8 -89 0 -98 4 -3 14 -4 23 -1 21 9 21 102 0 111
-10 3 -18 -1 -23 -12z"/>
<path d="M7250 7150 c0 -13 11 -13 30 0 12 8 11 10 -7 10 -13 0 -23 -4 -23
-10z"/>
<path d="M7195 7011 c-7 -12 32 -34 45 -26 6 3 10 13 10 21 0 16 -45 20 -55 5z"/>
<path d="M7120 6904 c-12 -31 -1 -50 24 -41 20 8 21 41 1 57 -12 10 -16 7 -25
-16z"/>
<path d="M4263 2733 c9 -2 23 -2 30 0 6 3 -1 5 -18 5 -16 0 -22 -2 -12 -5z"/>
<path d="M4535 2709 c-25 -22 -42 -30 -58 -26 -18 5 -15 0 14 -26 20 -18 47
-51 60 -74 12 -24 27 -43 31 -43 10 0 38 61 38 81 0 8 -12 10 -35 6 -29 -5
-38 -2 -51 18 -14 22 -13 25 11 49 14 14 30 26 35 26 6 0 10 5 10 10 0 18 -19
11 -55 -21z"/>
<path d="M4318 2723 c7 -3 16 -2 19 1 4 3 -2 6 -13 5 -11 0 -14 -3 -6 -6z"/>
<path d="M4368 2713 c6 -2 18 -2 25 0 6 3 1 5 -13 5 -14 0 -19 -2 -12 -5z"/>
<path d="M4613 2670 c6 -16 17 -30 24 -30 18 0 16 11 -6 38 -26 30 -31 28 -18
-8z"/>
<path d="M4035 2621 c-6 -11 9 -23 19 -14 9 9 7 23 -3 23 -6 0 -12 -4 -16 -9z"/>
<path d="M4643 2598 c-6 -7 -15 -27 -21 -44 -9 -29 -7 -35 28 -73 21 -23 46
-41 55 -41 12 0 15 -9 13 -35 -2 -28 5 -42 32 -70 18 -19 37 -32 42 -29 4 3 8
0 8 -7 0 -7 10 -3 24 10 26 24 42 72 21 65 -6 -3 -18 2 -25 11 -10 12 -16 13
-26 4 -20 -16 -17 -29 6 -29 11 0 20 -5 20 -10 0 -14 -30 -25 -39 -14 -3 5
-15 14 -25 20 -25 13 -32 34 -12 34 19 0 38 33 30 54 -3 9 -15 16 -25 16 -15
0 -19 7 -19 38 0 27 -8 48 -31 75 -33 40 -41 44 -56 25z"/>
<path d="M6302 2028 c2 -6 10 -14 16 -16 7 -2 10 2 6 12 -7 18 -28 22 -22 4z"/>
<path d="M6407 2006 c-4 -9 -14 -12 -28 -9 -16 4 -20 2 -17 -8 3 -9 22 -14 56
-15 29 -1 52 0 52 2 0 6 -44 44 -51 44 -4 0 -9 -6 -12 -14z"/>
<path d="M6490 1917 c0 -8 7 -17 15 -21 8 -3 15 -2 15 3 0 5 -7 14 -15 21 -12
10 -15 10 -15 -3z"/>
<path d="M6582 1768 c3 -7 13 -15 22 -16 12 -3 17 1 14 10 -3 7 -13 15 -22 16
-12 3 -17 -1 -14 -10z"/>
<path d="M6655 1579 c-10 -15 1 -23 20 -15 9 3 13 10 10 16 -8 13 -22 13 -30
-1z"/>
<path d="M6600 1550 c0 -5 7 -10 15 -10 8 0 15 5 15 10 0 6 -7 10 -15 10 -8 0
-15 -4 -15 -10z"/>
<path d="M9561 1614 c0 -11 3 -14 6 -6 3 7 2 16 -1 19 -3 4 -6 -2 -5 -13z"/>
<path d="M9446 1545 c-18 -13 -17 -14 7 -20 34 -9 52 2 36 21 -14 17 -19 17
-43 -1z"/>
<path d="M7418 12893 c7 -3 16 -2 19 1 4 3 -2 6 -13 5 -11 0 -14 -3 -6 -6z"/>
<path d="M7830 12630 c19 -13 30 -13 30 0 0 6 -10 10 -22 10 -19 0 -20 -2 -8
-10z"/>
<path d="M8642 11053 c7 -16 29 -56 49 -89 35 -57 91 -215 154 -429 15 -49 43
-119 62 -155 20 -36 54 -99 76 -140 22 -41 58 -103 78 -137 76 -123 143 -286
229 -553 20 -63 42 -124 48 -135 7 -11 19 -38 26 -60 10 -28 15 -33 15 -18 1
12 -7 37 -17 55 -19 34 -27 58 -42 142 -9 48 -42 160 -59 201 -33 79 -51 135
-51 158 0 9 -4 17 -10 17 -5 0 -10 9 -10 19 0 11 -4 23 -10 26 -5 3 -10 16
-10 28 0 12 -7 31 -15 41 -8 11 -15 27 -15 35 0 17 -155 329 -171 345 -5 6 -9
19 -9 30 0 18 -1 18 -19 2 -24 -22 -37 -5 -20 26 11 20 10 21 -3 11 -18 -16
-28 -7 -28 24 0 12 -5 23 -11 23 -5 0 -8 4 -5 8 3 5 -2 21 -10 36 -7 16 -14
39 -14 52 0 12 -4 26 -10 29 -5 3 -10 19 -10 36 0 16 5 29 10 29 6 0 10 5 10
12 0 9 -3 9 -12 0 -17 -17 -28 -15 -28 7 0 11 -5 23 -11 27 -6 3 -9 21 -7 39
3 25 0 31 -11 27 -11 -4 -13 0 -8 18 5 18 -10 49 -65 132 -38 59 -72 108 -74
108 -2 0 2 -12 8 -27z"/>
<path d="M9030 10755 c0 -5 10 -42 22 -82 17 -51 28 -71 39 -70 14 1 15 5 5
26 -29 65 -66 135 -66 126z"/>
<path d="M9120 10580 c0 -5 5 -10 11 -10 5 0 7 5 4 10 -3 6 -8 10 -11 10 -2 0
-4 -4 -4 -10z"/>
<path d="M9150 10531 c0 -7 15 -45 33 -85 19 -39 57 -132 86 -206 29 -74 69
-173 88 -220 19 -47 39 -105 43 -130 4 -25 15 -67 24 -95 18 -58 20 -85 6 -85
-5 0 -10 14 -10 30 0 17 -4 30 -10 30 -13 0 -13 -8 4 -115 18 -111 42 -240 71
-385 8 -41 15 -101 15 -132 0 -31 5 -60 11 -63 13 -9 8 107 -10 241 -12 82
-11 95 4 124 11 22 15 44 10 66 -5 27 -3 33 9 28 11 -4 16 6 22 42 7 48 0 182
-11 192 -11 11 -25 -23 -20 -48 6 -29 -8 -56 -24 -46 -15 9 -15 218 0 233 11
11 -10 65 -31 78 -12 7 -50 92 -50 112 0 8 -13 32 -30 53 -16 21 -30 43 -30
49 0 6 -8 20 -17 30 -32 35 -38 45 -95 161 -58 119 -87 166 -88 141z m187
-363 c-3 -8 -6 -5 -6 6 -1 11 2 17 5 13 3 -3 4 -12 1 -19z m122 -521 c1 -10
-3 -15 -9 -12 -5 3 -10 21 -9 38 0 27 2 29 9 12 5 -11 9 -28 9 -38z m8 -94
c-3 -10 -5 -4 -5 12 0 17 2 24 5 18 2 -7 2 -21 0 -30z"/>
<path d="M7925 10300 c-3 -5 -1 -10 4 -10 6 0 11 5 11 10 0 6 -2 10 -4 10 -3
0 -8 -4 -11 -10z"/>
<path d="M7920 10185 c0 -8 7 -15 15 -15 9 0 12 6 9 15 -4 8 -10 15 -15 15 -5
0 -9 -7 -9 -15z"/>
<path d="M7747 10183 c-4 -3 -7 -11 -7 -17 0 -6 5 -5 12 2 6 6 9 14 7 17 -3 3
-9 2 -12 -2z"/>
<path d="M5125 10068 l-40 -43 43 40 c39 36 47 45 39 45 -2 0 -21 -19 -42 -42z"/>
<path d="M4980 9923 l-65 -68 68 65 c37 35 67 66 67 67 0 8 -10 -2 -70 -64z"/>
<path d="M7405 9940 c-3 -6 1 -7 9 -4 18 7 21 14 7 14 -6 0 -13 -4 -16 -10z"/>
<path d="M9850 9819 c0 -5 5 -7 10 -4 6 3 10 8 10 11 0 2 -4 4 -10 4 -5 0 -10
-5 -10 -11z"/>
<path d="M4849 9793 c-13 -16 -12 -17 4 -4 9 7 17 15 17 17 0 8 -8 3 -21 -13z"/>
<path d="M4749 9673 c-13 -16 -12 -17 4 -4 9 7 17 15 17 17 0 8 -8 3 -21 -13z"/>
<path d="M9650 9610 c0 -18 4 -29 10 -25 6 3 10 15 10 25 0 10 -4 22 -10 25
-6 4 -10 -7 -10 -25z"/>
<path d="M9758 9543 c7 -3 16 -2 19 1 4 3 -2 6 -13 5 -11 0 -14 -3 -6 -6z"/>
<path d="M9700 9518 c0 -12 1 -19 3 -17 1 2 9 12 16 22 12 14 11 17 -3 17 -10
0 -16 -8 -16 -22z"/>
<path d="M8729 9504 c-8 -9 -9 -18 -3 -24 13 -13 54 -1 54 15 0 19 -37 25 -51
9z"/>
<path d="M9630 9469 c0 -5 5 -7 10 -4 6 3 10 8 10 11 0 2 -4 4 -10 4 -5 0 -10
-5 -10 -11z"/>
<path d="M4870 9452 c0 -12 19 -26 26 -19 2 2 -2 10 -11 17 -9 8 -15 8 -15 2z"/>
<path d="M9611 9388 c1 -37 2 -39 9 -18 12 36 12 60 0 60 -5 0 -10 -19 -9 -42z"/>
<path d="M8710 9370 c0 -5 5 -10 11 -10 5 0 7 5 4 10 -3 6 -8 10 -11 10 -2 0
-4 -4 -4 -10z"/>
<path d="M4930 9360 c0 -5 5 -10 11 -10 5 0 7 5 4 10 -3 6 -8 10 -11 10 -2 0
-4 -4 -4 -10z"/>
<path d="M9035 9333 c9 -38 45 -112 73 -150 13 -17 28 -48 34 -69 5 -21 25
-62 44 -91 19 -30 34 -56 34 -60 0 -19 112 -141 135 -147 18 -5 25 -12 21 -21
-11 -29 15 -75 51 -90 19 -8 39 -12 44 -10 11 7 -18 84 -43 111 -10 11 -18 26
-18 33 0 12 -20 42 -100 151 -22 30 -57 80 -77 110 -20 30 -54 75 -75 100 -21
25 -37 48 -36 52 2 3 -6 17 -18 30 -11 13 -28 35 -37 51 -10 15 -22 27 -28 27
-7 0 -9 -10 -4 -27z m220 -303 c3 -5 1 -10 -4 -10 -6 0 -11 5 -11 10 0 6 2 10
4 10 3 0 8 -4 11 -10z m40 -50 c3 -6 -1 -17 -9 -26 -15 -14 -16 -13 -16 10 0
26 13 35 25 16z m54 -84 c25 -39 27 -53 6 -36 -8 7 -15 19 -15 26 0 8 -7 14
-15 14 -8 0 -15 7 -15 15 0 25 17 17 39 -19z"/>
<path d="M9680 9330 c0 -19 3 -21 12 -12 9 9 9 15 0 24 -9 9 -12 7 -12 -12z"/>
<path d="M8718 9307 c-14 -11 -16 -20 -9 -44 12 -41 39 -83 70 -110 31 -27 58
-141 35 -150 -8 -3 -2 -14 19 -33 26 -23 30 -31 20 -41 -7 -7 -13 -21 -13 -31
0 -10 -5 -18 -12 -18 -9 0 -9 -3 0 -12 7 -7 12 -20 12 -30 0 -21 9 -22 33 -4
20 16 22 44 3 69 -7 9 -11 27 -9 40 3 12 -4 46 -15 74 -12 33 -16 55 -10 61 6
6 6 16 0 28 -6 11 -16 40 -23 67 -9 35 -16 47 -30 47 -12 0 -19 7 -19 20 0 11
-6 20 -14 20 -22 0 -29 19 -10 27 11 4 22 -1 31 -13 13 -18 14 -17 10 11 -3
23 -9 31 -28 32 -13 2 -32 -3 -41 -10z"/>
<path d="M9720 9294 c0 -8 5 -12 10 -9 6 4 8 11 5 16 -9 14 -15 11 -15 -7z"/>
<path d="M9877 9286 c-6 -16 2 -28 14 -20 12 7 11 34 0 34 -5 0 -11 -6 -14
-14z"/>
<path d="M10040 9296 c0 -17 -43 -220 -54 -256 -8 -25 -17 -62 -21 -83 -3 -21
-13 -41 -20 -44 -11 -4 -12 -10 -5 -24 8 -15 6 -23 -10 -36 -11 -10 -20 -26
-20 -36 0 -10 -4 -16 -9 -12 -11 6 -3 75 10 89 5 6 -6 23 -26 41 -32 30 -34
35 -29 79 4 37 3 47 -8 44 -7 -3 -12 -17 -11 -31 1 -23 -3 -26 -35 -29 l-37
-3 -3 -55 c-1 -30 -5 -62 -8 -70 -11 -28 -11 -82 0 -86 6 -2 11 -25 12 -50 1
-32 -3 -44 -12 -40 -18 7 -24 -31 -7 -46 18 -14 9 -94 -13 -119 -11 -13 -12
-26 -4 -69 10 -55 6 -90 -11 -90 -5 0 -9 -9 -9 -20 0 -11 -4 -20 -10 -20 -5 0
-9 10 -7 21 3 31 -17 34 -42 8 -33 -35 -45 -13 -45 79 0 43 -5 80 -10 85 -7 5
-5 12 7 21 21 16 22 30 2 46 -13 11 -13 16 -2 29 9 11 12 48 11 124 -1 67 2
107 8 107 6 0 8 14 5 33 -6 38 13 124 28 123 6 -1 9 -22 9 -48 -2 -45 8 -63
19 -35 4 9 8 8 17 -3 8 -12 9 -9 4 13 -9 39 16 218 34 239 19 22 7 38 -29 38
-16 0 -29 5 -29 10 0 6 -5 10 -11 10 -7 0 -9 -9 -5 -23 3 -13 -1 -32 -8 -43
-7 -10 -16 -32 -19 -49 -2 -16 -12 -57 -20 -90 -9 -33 -29 -114 -44 -180 l-28
-120 -5 85 c-4 68 -7 79 -14 57 -5 -16 -6 -54 -3 -85 6 -60 0 -129 -28 -302
-25 -157 -41 -402 -33 -510 19 -278 20 -478 4 -665 -9 -104 -19 -221 -22 -260
-6 -82 -30 -292 -43 -385 -7 -43 -7 -68 0 -77 7 -8 8 -32 1 -77 -10 -65 -7
-100 10 -123 6 -8 6 -25 -2 -47 -6 -20 -13 -48 -15 -63 -2 -16 -4 -33 -5 -38
-5 -23 2 -22 31 5 21 18 32 38 33 58 2 38 11 48 31 32 21 -18 45 -5 45 25 0
22 -3 24 -19 15 -28 -14 -29 -13 -23 18 3 15 16 37 29 49 15 14 23 34 23 55 0
18 9 44 19 57 17 22 21 23 51 12 18 -6 36 -8 39 -5 3 4 1 9 -6 11 -6 2 -24 15
-39 28 l-28 24 22 24 c12 13 22 34 21 48 -1 25 43 152 59 172 13 16 3 67 -14
74 -22 8 -17 32 6 26 12 -3 22 1 26 11 8 20 28 21 44 2 6 -8 18 -12 25 -10 10
4 8 14 -11 41 -13 20 -24 40 -24 45 0 17 33 21 45 5 10 -14 12 -8 10 33 -2 58
-10 71 -29 45 -9 -13 -15 -15 -20 -6 -9 15 2 51 16 51 6 0 20 8 30 17 21 19
58 25 75 11 7 -5 14 -5 18 2 8 13 -3 30 -21 30 -8 0 -14 7 -14 15 0 8 5 15 10
15 14 0 12 28 -2 33 -8 2 -9 8 -4 13 5 5 11 4 13 -3 6 -18 33 -16 33 1 0 8 -7
16 -15 20 -23 8 -18 35 8 40 67 14 113 14 140 0 16 -9 31 -13 34 -11 8 9 -17
48 -27 42 -5 -3 -19 0 -32 7 -13 7 -25 14 -27 15 -1 1 6 11 17 23 17 18 20 19
25 6 7 -16 37 -23 37 -8 0 5 -13 21 -29 36 -21 20 -30 24 -34 14 -3 -7 -6 -1
-6 14 -1 14 4 28 11 30 6 2 8 10 4 16 -10 17 -26 15 -26 -3 0 -8 -7 -15 -16
-15 -14 0 -15 -7 -10 -40 4 -25 2 -40 -4 -40 -5 0 -10 7 -10 16 0 25 -21 11
-41 -26 -24 -43 -39 -59 -39 -39 0 13 25 56 40 69 3 3 11 16 18 30 65 127 104
188 141 215 25 18 51 50 67 82 l25 52 50 -6 c43 -5 49 -4 43 11 -3 9 -1 16 5
16 6 0 11 -5 11 -11 0 -12 50 -59 63 -59 16 0 6 20 -18 36 -29 19 -33 41 -7
46 15 3 13 7 -9 28 -21 20 -25 32 -22 58 4 25 2 32 -11 32 -9 0 -16 -7 -16
-15 0 -8 -4 -15 -10 -15 -5 0 -10 -5 -10 -12 0 -17 -34 -87 -42 -88 -17 0 -6
29 37 102 54 92 73 106 112 81 17 -10 23 -11 16 -3 -7 8 -13 30 -14 50 0 19
-4 44 -8 55 -7 17 -10 15 -20 -18 -9 -27 -26 -47 -64 -72 -29 -19 -74 -50
-102 -70 -27 -19 -83 -49 -124 -66 -96 -40 -253 -80 -265 -68 -6 5 2 9 22 9
18 0 32 5 32 10 0 6 13 10 29 10 17 0 33 5 36 10 3 6 13 10 20 10 27 0 126 51
119 61 -4 7 3 10 17 8 55 -7 196 89 224 152 10 21 24 44 32 50 8 7 10 16 4 23
-11 14 -31 108 -31 149 0 34 -19 93 -51 163 -10 24 -19 48 -19 54 0 34 -33
120 -46 120 -8 0 -14 7 -14 15 0 25 -1 29 -12 43 -15 18 -28 15 -28 -7 0 -35
-18 -32 -24 5 -5 22 -3 41 5 50 8 10 9 30 4 67 -5 28 -10 79 -12 112 -1 33 -4
71 -5 85 -1 14 2 71 6 128 4 56 5 102 2 102 -3 0 -6 -2 -6 -4z m-380 -240 c0
-8 -4 -18 -10 -21 -5 -3 -10 3 -10 14 0 12 5 21 10 21 6 0 10 -6 10 -14z m170
-96 c0 -5 -5 -10 -11 -10 -5 0 -7 5 -4 10 3 6 8 10 11 10 2 0 4 -4 4 -10z
m-155 -630 c-3 -5 -10 -10 -16 -10 -5 0 -9 5 -9 10 0 6 7 10 16 10 8 0 12 -4
9 -10z m340 -120 c3 -6 -1 -13 -10 -16 -19 -8 -30 0 -20 15 8 14 22 14 30 1z
m93 -22 c-2 -15 -10 -23 -23 -23 -11 0 -23 -8 -27 -17 -4 -10 -16 -18 -27 -18
-11 0 -23 -4 -26 -10 -3 -5 -16 -9 -29 -8 -14 1 -42 -14 -74 -41 -38 -32 -56
-41 -71 -36 -27 8 -27 41 -1 55 11 6 20 18 20 27 0 11 6 14 21 10 19 -5 78 25
87 44 1 3 25 4 51 1 42 -4 51 -1 60 17 16 29 43 28 39 -1z m-52 -125 c3 -15
-1 -23 -11 -23 -9 0 -18 -6 -21 -14 -4 -10 -13 -12 -32 -7 -29 8 -44 41 -19
41 8 0 20 7 27 15 19 22 52 15 56 -12z m-276 -27 c0 -3 -4 -8 -10 -11 -5 -3
-10 -1 -10 4 0 6 5 11 10 11 6 0 10 -2 10 -4z m478 -118 c19 -19 14 -28 -13
-28 -18 0 -25 5 -25 20 0 22 20 26 38 8z m-408 -548 c0 -5 -18 -27 -40 -50
-47 -49 -53 -31 -10 29 27 37 50 47 50 21z m-86 -106 c4 -10 1 -14 -6 -12 -15
5 -23 28 -10 28 5 0 13 -7 16 -16z m-24 -34 c0 -5 -5 -10 -11 -10 -5 0 -7 5
-4 10 3 6 8 10 11 10 2 0 4 -4 4 -10z m-50 -88 c0 -13 -12 -22 -22 -16 -10 6
-1 24 13 24 5 0 9 -4 9 -8z m40 -42 c0 -5 -5 -10 -11 -10 -5 0 -7 5 -4 10 3 6
8 10 11 10 2 0 4 -4 4 -10z m-150 -410 c-8 -5 -18 -6 -24 -3 -5 4 -1 10 10 13
24 9 34 2 14 -10z m-99 -35 c22 7 24 -3 6 -30 -21 -30 -28 -84 -16 -107 10
-18 8 -24 -11 -38 -13 -10 -20 -22 -16 -28 5 -8 -22 -28 -29 -20 -2 2 2 30 7
63 5 33 11 71 12 85 4 47 20 105 24 87 2 -12 9 -16 23 -12z m43 -110 c-4 -8
-10 -12 -15 -9 -11 6 -2 24 11 24 5 0 7 -7 4 -15z"/>
<path d="M9773 9260 c-3 -13 -14 -20 -29 -20 -13 0 -24 -5 -24 -11 0 -6 7 -9
15 -5 8 3 15 1 15 -5 0 -6 11 -1 25 12 26 25 33 49 14 49 -6 0 -13 -9 -16 -20z"/>
<path d="M9603 9225 c0 -22 2 -30 4 -17 2 12 2 30 0 40 -3 9 -5 -1 -4 -23z"/>
<path d="M9822 9214 c4 -21 22 -23 26 -1 2 10 -3 17 -13 17 -10 0 -15 -6 -13
-16z"/>
<path d="M9783 9178 c-13 -6 -23 -17 -23 -25 0 -20 38 -16 50 6 18 34 12 38
-27 19z"/>
<path d="M4449 9098 c-3 -22 -1 -34 4 -29 5 5 7 21 5 37 -3 27 -4 26 -9 -8z"/>
<path d="M9736 9121 c-4 -6 -3 -18 2 -27 6 -11 11 -13 16 -5 4 6 3 18 -2 27
-6 11 -11 13 -16 5z"/>
<path d="M8180 9045 c7 -9 15 -13 17 -11 7 7 -7 26 -19 26 -6 0 -6 -6 2 -15z"/>
<path d="M8093 9025 c-3 -9 1 -21 9 -28 8 -7 26 -36 39 -64 13 -29 27 -53 32
-53 10 0 9 46 -2 68 -5 9 -16 34 -25 55 -16 38 -42 49 -53 22z"/>
<path d="M8230 8992 c0 -5 6 -16 13 -27 18 -24 41 -11 27 16 -10 19 -40 27
-40 11z"/>
<path d="M8390 8895 c-10 -12 -10 -18 0 -30 19 -23 30 -18 30 15 0 33 -11 38
-30 15z"/>
<path d="M8601 8893 c-16 -17 -44 -113 -36 -121 3 -3 6 -3 8 -1 7 10 58 120
58 126 1 14 -16 12 -30 -4z"/>
<path d="M9110 8899 c0 -18 35 -53 47 -48 4 2 -4 17 -19 34 -20 21 -28 25 -28
14z"/>
<path d="M8530 8870 c0 -16 2 -30 4 -30 2 0 9 14 15 30 8 24 7 30 -5 30 -9 0
-14 -10 -14 -30z"/>
<path d="M9640 8830 c0 -5 5 -10 10 -10 6 0 10 5 10 10 0 6 -4 10 -10 10 -5 0
-10 -4 -10 -10z"/>
<path d="M9173 8814 c-18 -18 -17 -22 16 -57 16 -18 48 -52 71 -77 23 -25 48
-57 56 -72 8 -16 19 -28 24 -28 14 0 12 16 -4 29 -7 6 -16 24 -19 39 -3 15
-20 42 -36 60 -17 18 -31 37 -31 41 0 14 -46 51 -54 44 -4 -4 -4 0 -1 9 8 21
-7 30 -22 12z"/>
<path d="M8340 8800 c-15 -28 -1 -43 25 -24 17 13 18 16 3 30 -15 15 -17 15
-28 -6z"/>
<path d="M8680 8789 c0 -14 5 -19 17 -17 26 5 29 38 4 38 -15 0 -21 -6 -21
-21z"/>
<path d="M8622 8788 c-19 -24 -45 -93 -43 -117 0 -13 -4 -30 -10 -37 -6 -7 -9
-28 -7 -46 l4 -33 14 30 c7 17 27 45 44 63 26 28 29 35 18 52 -8 13 -10 35 -6
60 7 42 3 49 -14 28z"/>
<path d="M8505 8780 c-10 -17 3 -57 20 -64 10 -3 18 1 22 11 4 9 1 19 -5 21
-7 2 -12 10 -12 17 0 18 -17 28 -25 15z"/>
<path d="M8860 8778 c1 -24 48 -163 49 -142 1 11 6 25 12 31 8 8 8 13 0 17 -6
4 -11 20 -11 37 0 16 -4 29 -10 29 -5 0 -10 9 -10 20 0 11 -7 20 -15 20 -8 0
-15 -6 -15 -12z"/>
<path d="M8386 8768 c-22 -78 -26 -104 -21 -129 6 -24 0 -40 -31 -85 -21 -31
-45 -60 -54 -65 -13 -7 -13 -10 -1 -18 12 -8 12 -12 2 -25 -17 -21 -51 -21
-51 0 0 9 13 33 29 53 42 53 91 133 91 148 0 27 -17 11 -53 -52 -24 -41 -56
-79 -91 -107 -30 -24 -55 -48 -55 -54 -1 -6 23 -16 52 -22 52 -10 52 -10 90
26 20 20 35 42 33 49 -3 7 0 12 7 10 7 -1 11 6 9 17 -2 11 1 15 8 11 6 -3 10
-3 9 2 -5 19 14 64 25 60 7 -3 12 12 13 42 1 25 4 70 8 99 4 35 3 52 -5 52 -6
0 -12 -6 -14 -12z m-76 -288 c0 -5 -4 -10 -10 -10 -5 0 -10 5 -10 10 0 6 5 10
10 10 6 0 10 -4 10 -10z"/>
<path d="M8305 8704 c-15 -19 -25 -37 -23 -40 8 -8 58 44 58 61 0 22 -4 19
-35 -21z"/>
<path d="M8720 8706 c0 -14 24 -29 33 -19 3 3 3 11 0 19 -7 18 -33 18 -33 0z"/>
<path d="M10211 8663 c-1 -12 4 -25 9 -28 12 -7 12 2 0 30 -8 19 -9 19 -9 -2z"/>
<path d="M7433 8602 c-70 -53 -105 -104 -85 -124 9 -9 15 -9 24 0 7 7 18 12
25 12 8 0 23 9 35 20 12 11 27 20 32 20 13 0 56 61 56 78 0 19 -7 15 -45 -25
-26 -29 -35 -34 -35 -20 0 10 7 20 15 23 8 3 17 14 20 24 3 10 14 20 23 22 10
2 13 6 7 10 -6 4 -39 -14 -72 -40z"/>
<path d="M8620 8566 c-18 -37 -39 -73 -46 -80 -7 -8 -16 -26 -20 -41 -6 -25
-5 -26 15 -16 11 7 21 15 21 20 0 4 23 30 50 58 55 56 58 67 31 102 l-19 24
-32 -67z"/>
<path d="M8897 8528 c3 -24 12 -56 19 -72 9 -19 11 -33 5 -39 -12 -12 23 -75
55 -100 31 -23 31 -7 -1 27 -13 15 -22 33 -19 41 4 9 2 21 -4 28 -5 6 -13 34
-17 61 -8 59 -21 96 -34 96 -5 0 -7 -19 -4 -42z"/>
<path d="M6700 8540 c0 -5 5 -10 10 -10 6 0 10 5 10 10 0 6 -4 10 -10 10 -5 0
-10 -4 -10 -10z"/>
<path d="M7565 8540 c-3 -5 1 -10 10 -10 9 0 13 5 10 10 -3 6 -8 10 -10 10 -2
0 -7 -4 -10 -10z"/>
<path d="M10231 8535 c0 -11 5 -41 12 -67 l13 -47 39 45 c22 24 45 44 53 44 7
0 10 4 7 10 -4 6 -17 4 -36 -6 -41 -21 -72 -15 -80 16 -6 20 -7 21 -8 5z"/>
<path d="M8689 8492 c-10 -9 -47 -44 -83 -76 -36 -33 -66 -63 -66 -68 0 -4 11
-8 25 -8 13 0 43 -10 66 -22 29 -15 46 -18 57 -12 26 17 18 29 -28 44 -51 17
-61 30 -34 45 11 6 33 22 50 38 17 15 39 33 49 41 19 13 13 37 -8 35 -7 0 -19
-8 -28 -17z"/>
<path d="M7130 8483 c1 -15 39 -58 45 -51 8 8 -24 58 -36 58 -5 0 -9 -3 -9 -7z"/>
<path d="M6510 8444 c0 -8 5 -12 10 -9 6 4 8 11 5 16 -9 14 -15 11 -15 -7z"/>
<path d="M7170 8394 c0 -8 5 -12 10 -9 6 3 10 10 10 16 0 5 -4 9 -10 9 -5 0
-10 -7 -10 -16z"/>
<path d="M8800 8370 c-15 -10 -15 -10 25 -10 3 0 5 3 6 7 1 12 -15 13 -31 3z"/>
<path d="M6482 8325 c6 -14 15 -25 20 -25 12 0 9 12 -6 33 -19 25 -27 21 -14
-8z"/>
<path d="M6630 8309 c13 -23 33 -21 38 4 3 12 -4 17 -23 17 -23 0 -25 -2 -15
-21z"/>
<path d="M10296 8265 c4 -22 15 -56 25 -76 10 -19 30 -72 45 -117 15 -46 29
-80 31 -78 6 6 -36 133 -77 236 -24 59 -29 67 -24 35z"/>
<path d="M8566 8271 c-4 -6 -5 -15 -2 -20 3 -5 -1 -14 -9 -21 -19 -16 -10 -30
19 -30 24 0 61 -32 49 -43 -3 -4 -26 -7 -50 -7 -53 0 -57 -15 -5 -24 55 -9 92
-7 92 4 0 16 20 12 48 -11 l27 -20 17 21 c10 12 18 30 18 39 0 29 -63 88 -106
100 -82 21 -92 22 -98 12z m124 -56 c45 -29 66 -53 54 -65 -5 -5 -33 8 -69 31
-94 64 -81 94 15 34z"/>
<path d="M6670 8245 c0 -17 2 -21 54 -81 46 -53 118 -104 123 -86 5 14 33 17
33 3 0 -5 -5 -11 -12 -13 -6 -2 -9 -12 -5 -21 7 -19 33 -13 41 10 8 20 -26 53
-53 53 -20 0 -103 80 -131 126 -16 27 -50 33 -50 9z"/>
<path d="M8865 8180 c3 -5 8 -10 11 -10 2 0 4 5 4 10 0 6 -5 10 -11 10 -5 0
-7 -4 -4 -10z"/>
<path d="M4161 8152 c-6 -12 -11 -31 -11 -44 1 -17 5 -12 15 17 15 43 13 59
-4 27z"/>
<path d="M8470 8132 c0 -10 22 -32 32 -32 15 0 8 15 -12 28 -11 7 -20 9 -20 4z"/>
<path d="M8521 8085 c1 -22 16 -48 22 -38 3 5 0 19 -8 29 -8 10 -14 15 -14 9z"/>
<path d="M6690 8049 c0 -5 5 -7 10 -4 6 3 10 8 10 11 0 2 -4 4 -10 4 -5 0 -10
-5 -10 -11z"/>
<path d="M10270 8035 c0 -8 7 -15 15 -15 8 0 15 7 15 15 0 8 -7 15 -15 15 -8
0 -15 -7 -15 -15z"/>
<path d="M8375 8010 c-3 -5 3 -10 14 -10 11 0 23 5 26 10 3 6 -3 10 -14 10
-11 0 -23 -4 -26 -10z"/>
<path d="M10299 7988 c-10 -18 -9 -20 6 -15 9 4 19 7 21 7 2 0 4 7 4 15 0 22
-18 18 -31 -7z"/>
<path d="M6700 7970 c0 -11 12 -27 28 -36 15 -9 39 -25 54 -35 32 -22 73 -26
65 -6 -3 9 5 12 32 9 24 -3 33 -1 26 6 -12 12 -99 42 -124 42 -10 0 -26 9 -36
20 -23 26 -45 26 -45 0z"/>
<path d="M10402 7830 c-1 -96 -5 -156 -12 -158 -5 -2 -10 -10 -10 -18 0 -11
-4 -12 -19 -4 -27 14 -27 14 -41 -21 -10 -22 -10 -33 -1 -42 19 -19 12 -37
-14 -37 -16 0 -28 -7 -33 -19 -11 -29 -48 -10 -56 31 -7 31 -8 32 -18 11 -9
-19 -6 -27 21 -53 30 -30 46 -75 19 -52 -10 8 -68 6 -68 -2 0 -2 9 -20 20 -42
l21 -39 -6 38 c-5 29 -3 37 9 37 20 0 31 -37 16 -55 -12 -15 -7 -45 7 -45 5 0
13 10 18 22 14 31 27 31 53 -3 21 -26 22 -29 5 -27 -52 4 -55 1 -33 -39 28
-52 25 -59 -10 -23 -16 16 -31 30 -34 30 -10 0 9 -45 26 -62 10 -10 18 -25 18
-33 0 -8 7 -15 15 -15 8 0 15 -4 15 -9 0 -18 -19 -22 -39 -9 -28 17 -38 3 -16
-22 18 -19 17 -20 -3 -20 -12 0 -22 5 -22 10 0 6 -9 10 -20 10 -11 0 -20 5
-20 11 0 12 -25 39 -36 39 -3 0 -1 -7 6 -15 10 -12 9 -16 -3 -21 -13 -5 -11
-11 11 -36 15 -16 26 -39 24 -49 -2 -14 3 -19 19 -19 18 0 19 -3 9 -15 -6 -8
-9 -23 -5 -34 9 -28 -11 -35 -35 -11 -18 18 -40 27 -40 16 0 -2 7 -21 16 -41
12 -29 13 -40 3 -45 -8 -6 -9 -19 -3 -46 4 -22 8 -45 7 -53 -1 -8 5 -20 13
-28 20 -20 17 -33 -7 -33 -18 0 -21 -4 -16 -29 9 -45 -2 -44 -44 2 -22 23 -34
44 -28 46 6 2 16 -2 22 -8 6 -6 19 -11 29 -11 21 0 24 29 6 49 -11 11 -10 12
1 6 7 -4 12 -4 9 1 -2 5 -12 26 -22 48 -13 30 -20 36 -29 27 -9 -9 -8 -14 3
-22 12 -8 10 -9 -7 -4 -21 6 -23 3 -23 -29 0 -24 -5 -36 -14 -36 -8 0 -16 -6
-19 -12 -6 -17 21 -70 32 -63 5 2 14 -2 21 -10 11 -13 7 -20 -19 -46 -17 -16
-34 -43 -38 -59 -4 -21 -11 -30 -25 -30 -30 0 -14 -68 24 -102 30 -26 31 -48
2 -48 -12 0 -13 -8 -8 -35 3 -19 2 -35 -2 -35 -13 0 -36 16 -35 24 4 30 0 39
-11 28 -10 -10 -10 -17 0 -32 16 -27 15 -30 -8 -30 -14 0 -20 7 -20 21 0 18
-2 19 -15 9 -15 -12 -17 -10 -19 19 -1 19 -26 27 -26 8 0 -9 8 -30 18 -47 13
-25 14 -34 5 -37 -7 -3 -13 -9 -13 -15 0 -6 6 -6 15 2 19 16 32 6 37 -30 5
-33 -2 -36 -32 -18 -28 18 -35 3 -11 -21 22 -22 27 -41 11 -41 -12 0 -26 16
-50 58 -11 17 -27 32 -35 32 -17 0 -20 -16 -6 -25 6 -3 6 -17 1 -35 -5 -18 -5
-32 1 -35 14 -10 11 -35 -6 -35 -7 0 -19 8 -24 18 -9 15 -12 15 -21 2 -12 -19
-13 -30 0 -30 17 0 52 -80 41 -94 -11 -13 -4 -53 12 -74 7 -9 4 -18 -8 -32
-24 -26 -28 -20 -29 37 -1 39 -4 48 -21 51 -11 2 -28 11 -37 20 -10 8 -18 10
-18 5 0 -6 7 -16 16 -23 8 -8 20 -22 25 -33 9 -16 8 -18 -10 -13 -12 3 -30 9
-42 12 -18 5 -20 3 -14 -15 4 -12 2 -28 -4 -35 -12 -14 10 -69 33 -83 7 -5 17
-15 22 -25 5 -9 23 -32 41 -51 24 -27 29 -37 17 -41 -7 -3 -14 -15 -14 -26 0
-17 -4 -19 -26 -14 -25 6 -25 5 -19 -30 5 -26 3 -37 -6 -41 -16 -6 -23 -65 -9
-65 5 0 7 7 4 15 -4 10 0 15 15 15 20 0 21 -4 16 -52 -10 -89 -16 -117 -32
-130 -14 -11 -15 -6 -8 40 4 32 3 52 -3 52 -12 0 -42 -72 -42 -100 0 -10 -4
-22 -10 -25 -13 -8 -13 -45 0 -45 12 0 2 -52 -12 -61 -5 -3 -2 -12 6 -19 13
-10 17 -9 23 6 11 30 43 61 44 43 0 -8 6 6 14 30 7 24 11 50 8 59 -4 9 -2 13
4 9 6 -4 23 29 43 81 17 48 41 107 53 132 11 25 24 68 27 95 13 87 47 193 78
242 17 27 34 60 37 76 4 15 11 30 16 33 10 6 34 57 45 94 3 14 10 27 13 30 15
12 61 91 61 105 0 8 4 23 9 33 6 9 22 44 36 77 40 90 59 129 68 136 5 3 15 39
23 80 9 40 38 134 66 207 28 74 54 162 58 196 5 33 13 84 20 111 7 31 11 121
9 240 -1 105 -2 255 -1 335 0 80 -3 165 -7 190 -5 31 -8 -4 -9 -110z m-32
-274 c0 -3 -4 -8 -10 -11 -5 -3 -10 -1 -10 4 0 6 5 11 10 11 6 0 10 -2 10 -4z
m-46 -62 c11 -30 6 -35 -18 -17 -25 18 -25 33 -1 33 7 0 16 -7 19 -16z m36
-97 c0 -5 -4 -5 -10 -2 -5 3 -10 14 -10 23 0 15 2 15 10 2 5 -8 10 -19 10 -23z
m-10 -108 c0 -5 -4 -9 -10 -9 -5 0 -10 7 -10 16 0 8 5 12 10 9 6 -3 10 -10 10
-16z m-120 -153 c0 -3 -4 -8 -10 -11 -5 -3 -10 -1 -10 4 0 6 5 11 10 11 6 0
10 -2 10 -4z m0 -177 c0 -6 -7 -18 -16 -26 -10 -10 -13 -25 -10 -42 6 -25 6
-25 -9 -7 -15 20 -21 87 -9 99 9 8 44 -11 44 -24z m-160 -325 c0 -8 -4 -12
-10 -9 -5 3 -10 10 -10 16 0 5 5 9 10 9 6 0 10 -7 10 -16z m40 -38 c0 -3 -4
-8 -10 -11 -5 -3 -10 -1 -10 4 0 6 5 11 10 11 6 0 10 -2 10 -4z m-55 -16 c3
-5 1 -10 -4 -10 -6 0 -11 5 -11 10 0 6 2 10 4 10 3 0 8 -4 11 -10z m0 -30 c3
-5 1 -10 -4 -10 -6 0 -11 5 -11 10 0 6 2 10 4 10 3 0 8 -4 11 -10z m-56 -234
c7 -8 8 -17 3 -19 -4 -3 -13 3 -20 14 -14 22 0 26 17 5z m-104 -112 c28 -18
33 -34 10 -34 -8 0 -21 -12 -29 -27 -13 -24 -15 -25 -16 -7 0 11 6 26 12 32
10 10 10 17 0 32 -15 24 -9 25 23 4z m-131 -220 c20 -8 23 -88 4 -82 -7 3 -15
15 -16 29 -2 13 -8 28 -13 34 -20 21 -7 31 25 19z m39 -276 c7 -25 0 -41 -14
-33 -12 8 -12 55 0 55 5 0 11 -10 14 -22z"/>
<path d="M10320 7920 c0 -5 5 -10 10 -10 6 0 10 5 10 10 0 6 -4 10 -10 10 -5
0 -10 -4 -10 -10z"/>
<path d="M6693 7855 c-14 -39 70 -80 182 -90 l60 -5 -40 13 c-48 15 -59 44
-19 49 15 2 30 9 32 17 4 11 -2 12 -24 7 -45 -11 -129 -2 -140 15 -9 15 -44
10 -51 -6z"/>
<path d="M10357 7863 c-10 -9 -8 -86 2 -102 11 -17 22 30 17 72 -4 31 -10 40
-19 30z"/>
<path d="M4061 7784 c0 -11 3 -14 6 -6 3 7 2 16 -1 19 -3 4 -6 -2 -5 -13z"/>
<path d="M10370 7730 c0 -5 5 -10 10 -10 6 0 10 5 10 10 0 6 -4 10 -10 10 -5
0 -10 -4 -10 -10z"/>
<path d="M8995 7620 c3 -5 8 -10 11 -10 2 0 4 5 4 10 0 6 -5 10 -11 10 -5 0
-7 -4 -4 -10z"/>
<path d="M10015 7610 c3 -5 8 -10 11 -10 2 0 4 5 4 10 0 6 -5 10 -11 10 -5 0
-7 -4 -4 -10z"/>
<path d="M10030 7566 c0 -32 12 -58 48 -98 15 -17 27 -35 27 -41 0 -16 53 -72
61 -64 11 11 -25 75 -55 96 -16 12 -36 41 -46 68 -23 61 -35 75 -35 39z"/>
<path d="M8494 7510 c-8 -38 -30 -58 -46 -42 -19 19 -58 15 -58 -6 0 -10 -5
-23 -12 -30 -9 -9 -9 -15 0 -24 9 -9 12 -9 12 2 0 11 2 12 13 1 10 -10 9 -14
-5 -22 -19 -11 -24 -29 -9 -29 6 0 32 21 58 46 26 25 58 50 71 55 13 5 21 13
18 18 -3 4 1 17 9 27 21 28 18 34 -15 34 -26 0 -31 -5 -36 -30z"/>
<path d="M9070 7525 c0 -11 7 -33 15 -49 8 -15 15 -35 15 -42 0 -8 5 -14 11
-14 7 0 9 -11 5 -27 -3 -16 -3 -22 0 -15 5 10 9 10 20 1 8 -7 17 -9 20 -6 7 7
-26 77 -36 77 -4 0 -10 12 -13 28 -3 15 -13 36 -21 47 l-15 20 -1 -20z"/>
<path d="M4031 7494 c0 -11 3 -14 6 -6 3 7 2 16 -1 19 -3 4 -6 -2 -5 -13z"/>
<path d="M4060 7490 c0 -5 5 -10 10 -10 6 0 10 5 10 10 0 6 -4 10 -10 10 -5 0
-10 -4 -10 -10z"/>
<path d="M4012 7430 c0 -14 2 -19 5 -12 2 6 2 18 0 25 -3 6 -5 1 -5 -13z"/>
<path d="M3992 7348 c-14 -14 -16 -42 -3 -34 7 5 23 46 17 46 -1 0 -7 -5 -14
-12z"/>
<path d="M10160 7339 c0 -9 14 -35 30 -57 17 -23 30 -47 30 -53 0 -5 5 -7 11
-4 7 5 5 13 -5 24 -9 10 -16 25 -16 34 0 22 -49 78 -50 56z"/>
<path d="M8777 7294 c3 -7 9 -14 14 -14 14 0 10 17 -5 23 -10 4 -13 1 -9 -9z"/>
<path d="M10066 7302 c-2 -4 6 -21 19 -38 13 -16 24 -23 25 -16 0 19 -37 65
-44 54z"/>
<path d="M8710 7250 c0 -5 5 -10 10 -10 6 0 10 5 10 10 0 6 -4 10 -10 10 -5 0
-10 -4 -10 -10z"/>
<path d="M8590 7221 c0 -5 5 -13 10 -16 6 -3 10 -2 10 4 0 5 -4 13 -10 16 -5
3 -10 2 -10 -4z"/>
<path d="M9840 7175 c-10 -12 -10 -18 0 -30 18 -22 30 -18 30 9 0 31 -14 40
-30 21z"/>
<path d="M8610 7160 c0 -5 5 -10 10 -10 6 0 10 5 10 10 0 6 -4 10 -10 10 -5 0
-10 -4 -10 -10z"/>
<path d="M10107 7144 c6 -15 23 -19 23 -5 0 5 -7 11 -14 14 -10 4 -13 1 -9 -9z"/>
<path d="M8785 7090 c-3 -6 1 -17 9 -26 33 -32 37 -50 16 -69 -11 -10 -20 -23
-20 -29 0 -6 5 -5 12 2 18 18 35 15 41 -8 3 -11 10 -20 16 -20 7 0 9 10 5 25
-7 29 12 34 31 9 8 -12 20 -15 38 -10 34 8 34 20 1 34 -19 9 -24 17 -19 32 4
14 2 20 -9 20 -8 0 -18 -4 -21 -10 -12 -19 -33 -10 -54 25 -21 36 -35 43 -46
25z"/>
<path d="M9030 7075 c-8 -9 -8 -15 -2 -15 12 0 26 19 19 26 -2 2 -10 -2 -17
-11z"/>
<path d="M9065 7030 c-3 -5 -1 -10 4 -10 6 0 11 5 11 10 0 6 -2 10 -4 10 -3 0
-8 -4 -11 -10z"/>
<path d="M10068 7029 c-22 -12 -23 -42 -4 -58 11 -9 19 -9 35 1 23 14 27 38 9
56 -14 14 -18 14 -40 1z"/>
<path d="M8745 6951 c-3 -5 -1 -12 5 -16 5 -3 10 1 10 9 0 18 -6 21 -15 7z"/>
<path d="M9720 6950 c0 -5 5 -10 10 -10 6 0 10 5 10 10 0 6 -4 10 -10 10 -5 0
-10 -4 -10 -10z"/>
<path d="M9740 6915 c0 -16 27 -32 37 -21 7 7 -16 36 -28 36 -5 0 -9 -7 -9
-15z"/>
<path d="M3780 6735 c0 -8 5 -15 10 -15 6 0 10 7 10 15 0 8 -4 15 -10 15 -5 0
-10 -7 -10 -15z"/>
<path d="M7940 6680 c0 -5 5 -10 10 -10 6 0 10 5 10 10 0 6 -4 10 -10 10 -5 0
-10 -4 -10 -10z"/>
<path d="M8780 6600 c-8 -5 -11 -12 -7 -17 5 -4 11 -3 15 3 4 6 14 14 22 17
13 5 13 5 0 6 -8 0 -22 -3 -30 -9z"/>
<path d="M3704 6535 c-17 -26 -13 -55 8 -55 9 0 9 3 -2 10 -9 6 -11 13 -5 18
23 16 36 40 26 46 -6 4 -18 -5 -27 -19z"/>
<path d="M8795 6540 c4 -6 11 -8 16 -5 14 9 11 15 -7 15 -8 0 -12 -5 -9 -10z"/>
<path d="M9565 6519 c-4 -6 -5 -13 -2 -16 7 -7 27 6 27 18 0 12 -17 12 -25 -2z"/>
<path d="M9960 6523 c1 -11 50 -46 50 -35 0 10 -33 42 -43 42 -4 0 -7 -3 -7
-7z"/>
<path d="M8962 6468 c2 -6 10 -14 16 -16 7 -2 10 2 6 12 -7 18 -28 22 -22 4z"/>
<path d="M8880 6420 c0 -5 7 -10 15 -10 8 0 15 5 15 10 0 6 -7 10 -15 10 -8 0
-15 -4 -15 -10z"/>
<path d="M9361 6388 c-12 -32 -51 -269 -51 -311 0 -19 -9 -45 -20 -60 -23 -29
-28 -89 -7 -81 8 3 13 15 13 27 -1 15 6 23 22 25 12 2 22 10 22 18 0 7 14 26
30 41 31 28 39 53 17 53 -8 0 -19 -11 -25 -25 -12 -25 -38 -36 -29 -12 2 6 10
46 16 87 26 164 32 206 37 227 6 30 -14 39 -25 11z"/>
<path d="M9540 6400 c0 -5 5 -10 10 -10 6 0 10 5 10 10 0 6 -4 10 -10 10 -5 0
-10 -4 -10 -10z"/>
<path d="M8765 6340 c-10 -17 12 -37 25 -24 8 8 6 15 -4 23 -10 9 -16 9 -21 1z"/>
<path d="M7870 6295 c-19 -11 -21 -14 -8 -15 10 0 25 -11 34 -24 15 -24 44
-26 44 -2 -1 10 -34 56 -42 56 -1 -1 -14 -7 -28 -15z"/>
<path d="M3610 6287 c0 -19 124 -141 129 -126 2 6 -26 41 -63 76 -36 35 -66
58 -66 50z"/>
<path d="M9520 6284 c0 -8 5 -12 10 -9 6 3 10 10 10 16 0 5 -4 9 -10 9 -5 0
-10 -7 -10 -16z"/>
<path d="M8815 6270 c3 -5 8 -10 11 -10 2 0 4 5 4 10 0 6 -5 10 -11 10 -5 0
-7 -4 -4 -10z"/>
<path d="M7957 6200 c-12 -11 -15 -20 -8 -24 14 -9 53 13 48 27 -6 18 -21 17
-40 -3z"/>
<path d="M9730 6180 c0 -5 4 -10 9 -10 6 0 13 5 16 10 3 6 -1 10 -9 10 -9 0
-16 -4 -16 -10z"/>
<path d="M7700 6130 c0 -5 5 -10 10 -10 6 0 10 5 10 10 0 6 -4 10 -10 10 -5 0
-10 -4 -10 -10z"/>
<path d="M9746 6131 c-3 -5 5 -16 19 -25 24 -16 25 -15 25 3 0 10 -7 22 -16
25 -20 8 -22 8 -28 -3z"/>
<path d="M7622 6086 c1 -10 8 -17 13 -17 15 1 12 24 -3 29 -9 3 -13 -2 -10
-12z"/>
<path d="M7988 5983 c-35 -5 -36 -31 -2 -39 17 -4 31 -1 41 9 14 14 11 39 -5
36 -4 -1 -19 -4 -34 -6z"/>
<path d="M3948 5973 c6 -2 18 -2 25 0 6 3 1 5 -13 5 -14 0 -19 -2 -12 -5z"/>
<path d="M3990 5960 c0 -5 7 -10 16 -10 8 0 12 5 9 10 -3 6 -10 10 -16 10 -5
0 -9 -4 -9 -10z"/>
<path d="M7540 5961 c0 -6 5 -13 10 -16 6 -3 10 1 10 9 0 9 -4 16 -10 16 -5 0
-10 -4 -10 -9z"/>
<path d="M9620 5950 c0 -5 5 -10 11 -10 5 0 7 5 4 10 -3 6 -8 10 -11 10 -2 0
-4 -4 -4 -10z"/>
<path d="M4038 5933 c7 -3 16 -2 19 1 4 3 -2 6 -13 5 -11 0 -14 -3 -6 -6z"/>
<path d="M4085 5927 c11 -9 29 -17 40 -17 27 0 7 17 -30 25 -29 7 -29 7 -10
-8z"/>
<path d="M4155 5920 c-4 -6 3 -10 14 -10 25 0 27 6 6 13 -8 4 -17 2 -20 -3z"/>
<path d="M9640 5925 c0 -3 18 -23 40 -45 39 -39 51 -72 30 -85 -11 -7 -4 -25
8 -25 4 0 15 12 24 27 16 27 16 27 -28 70 -24 24 -44 48 -44 53 0 6 -7 10 -15
10 -8 0 -15 -2 -15 -5z"/>
<path d="M9231 5885 c-6 -19 -26 -49 -44 -66 -17 -17 -32 -38 -33 -46 -2 -8
-21 -42 -44 -75 -23 -33 -39 -63 -35 -66 10 -11 66 53 92 106 30 62 59 93 79
85 8 -3 14 0 14 6 0 6 -4 11 -10 11 -15 0 -12 28 6 55 13 21 14 25 2 25 -8 0
-20 -16 -27 -35z"/>
<path d="M9640 5800 c0 -5 5 -10 11 -10 5 0 7 5 4 10 -3 6 -8 10 -11 10 -2 0
-4 -4 -4 -10z"/>
<path d="M9760 5784 c0 -8 5 -12 10 -9 6 3 10 10 10 16 0 5 -4 9 -10 9 -5 0
-10 -7 -10 -16z"/>
<path d="M7990 5695 c0 -8 5 -15 10 -15 6 0 10 7 10 15 0 8 -4 15 -10 15 -5 0
-10 -7 -10 -15z"/>
<path d="M9260 5680 c0 -5 5 -10 11 -10 5 0 7 5 4 10 -3 6 -8 10 -11 10 -2 0
-4 -4 -4 -10z"/>
<path d="M9490 5655 c0 -9 5 -15 11 -13 6 2 11 8 11 13 0 5 -5 11 -11 13 -6 2
-11 -4 -11 -13z"/>
<path d="M9596 5661 c-4 -5 -2 -12 3 -15 5 -4 12 -2 15 3 4 5 2 12 -3 15 -5 4
-12 2 -15 -3z"/>
<path d="M6705 5600 c-11 -13 -14 -20 -6 -20 13 0 41 24 41 34 0 12 -18 5 -35
-14z"/>
<path d="M9586 5561 c-3 -5 1 -11 9 -15 15 -6 29 7 18 18 -9 9 -21 8 -27 -3z"/>
<path d="M6455 5510 c3 -5 8 -10 11 -10 2 0 4 5 4 10 0 6 -5 10 -11 10 -5 0
-7 -4 -4 -10z"/>
<path d="M7090 5510 c0 -5 5 -10 10 -10 6 0 10 5 10 10 0 6 -4 10 -10 10 -5 0
-10 -4 -10 -10z"/>
<path d="M8825 5480 c-3 -5 -1 -10 4 -10 6 0 11 5 11 10 0 6 -2 10 -4 10 -3 0
-8 -4 -11 -10z"/>
<path d="M8605 5460 c3 -5 8 -10 11 -10 2 0 4 5 4 10 0 6 -5 10 -11 10 -5 0
-7 -4 -4 -10z"/>
<path d="M9600 5450 c0 -5 5 -10 10 -10 6 0 10 5 10 10 0 6 -4 10 -10 10 -5 0
-10 -4 -10 -10z"/>
<path d="M8270 5440 c-8 -5 -10 -10 -5 -10 6 0 17 5 25 10 8 5 11 10 5 10 -5
0 -17 -5 -25 -10z"/>
<path d="M9005 5427 c-12 -9 -14 -16 -7 -21 6 -3 16 3 22 14 13 24 10 25 -15
7z"/>
<path d="M8220 5409 c0 -5 5 -7 10 -4 6 3 10 8 10 11 0 2 -4 4 -10 4 -5 0 -10
-5 -10 -11z"/>
<path d="M8768 5333 c-24 -32 -46 -59 -50 -61 -5 -2 -8 -10 -8 -17 0 -8 -8
-18 -17 -24 -10 -5 -16 -12 -13 -14 8 -8 47 28 67 61 10 16 33 49 51 71 19 23
29 41 23 41 -6 0 -30 -26 -53 -57z"/>
<path d="M8297 5340 c-23 -28 -23 -28 24 -20 46 9 76 30 42 30 -12 0 -27 2
-35 5 -7 3 -21 -4 -31 -15z"/>
<path d="M9712 5298 c-27 -86 -33 -129 -35 -295 -2 -99 0 -158 4 -133 4 25 8
102 8 171 1 91 7 147 21 204 20 78 21 115 2 53z"/>
<path d="M9630 5241 c0 -22 25 -39 38 -27 8 8 -10 38 -26 44 -7 2 -12 -6 -12
-17z"/>
<path d="M9559 5235 c-10 -19 -10 -135 -1 -135 14 0 25 31 23 62 -3 40 -17 83
-22 73z"/>
<path d="M8456 5172 c-3 -24 -6 -59 -6 -76 0 -18 -6 -38 -12 -44 -10 -10 -10
-15 2 -23 8 -5 22 -8 31 -5 12 2 20 -7 29 -33 15 -46 -6 -134 -44 -190 -14
-20 -28 -54 -32 -75 -7 -46 -33 -86 -53 -83 -9 1 -19 -19 -30 -58 -10 -33 -22
-69 -28 -80 -48 -85 -116 -255 -103 -255 6 0 13 8 16 18 9 27 27 63 53 110 29
49 60 56 98 20 l23 -21 0 37 c0 34 1 36 21 26 20 -11 21 -9 17 27 -3 34 0 40
30 54 l33 17 -31 25 c-16 14 -39 28 -50 32 -30 10 -24 25 10 25 34 0 38 14 13
42 -15 17 -15 18 2 18 9 0 35 -18 57 -40 22 -22 42 -40 44 -40 12 0 -1 24 -36
69 -47 59 -49 75 -15 125 14 20 25 39 25 42 0 15 28 31 40 24 15 -9 62 -6 80
5 15 10 12 -23 -15 -152 -55 -259 -92 -373 -121 -373 -7 0 -30 -11 -50 -25
-20 -14 -44 -25 -54 -25 -9 0 -29 -13 -45 -30 -20 -20 -33 -27 -44 -21 -9 4
-29 7 -46 7 -31 -1 -33 -8 -20 -53 6 -17 1 -23 -27 -33 -28 -10 -36 -21 -51
-65 -22 -67 -22 -81 3 -88 23 -6 17 -37 -7 -37 -8 0 -11 -4 -8 -10 9 -15 -15
-93 -36 -112 -10 -10 -29 -18 -43 -18 -14 0 -28 -5 -31 -10 -4 -6 -21 -8 -40
-4 -19 3 -57 0 -84 -7 -40 -10 -53 -10 -65 0 -11 9 -29 11 -58 6 -28 -5 -37
-10 -26 -14 10 -3 -29 -6 -85 -6 -102 0 -110 2 -153 43 -8 7 -14 24 -14 38 0
20 -5 24 -30 24 -35 0 -40 22 -13 52 14 16 14 18 0 18 -8 0 -22 -7 -31 -15
-23 -23 -58 -17 -90 15 -21 21 -32 27 -37 18 -5 -8 -11 -9 -21 -1 -17 13 -108
16 -108 3 0 -5 -13 -16 -30 -25 -27 -14 -44 -5 -20 10 22 14 -1 20 -67 17 -37
-1 -81 -2 -98 -1 -98 6 -120 4 -122 -11 -2 -9 12 -21 37 -32 46 -19 53 -34 70
-144 7 -43 16 -83 20 -89 13 -16 -1 -65 -21 -76 -23 -12 -25 -47 -4 -55 8 -4
15 -10 15 -15 0 -5 -7 -9 -15 -9 -25 0 -19 -47 8 -56 44 -13 53 -64 12 -64
-15 0 -28 7 -32 18 -12 31 -26 40 -45 29 -13 -9 -21 -7 -36 6 -10 9 -26 17
-35 17 -33 0 -17 18 21 25 36 6 38 8 34 36 -3 21 0 29 11 29 8 0 18 -6 20 -12
3 -8 6 -6 6 5 1 10 -10 22 -25 27 -14 6 -22 14 -19 20 4 6 -6 10 -22 10 -15 0
-40 7 -55 14 -16 8 -28 11 -28 7 0 -5 -13 -14 -30 -21 -43 -18 -38 -37 8 -31
6 1 12 -8 12 -21 0 -13 7 -36 15 -52 18 -33 19 -46 5 -46 -5 0 -10 7 -10 15 0
23 -15 18 -52 -15 -18 -16 -37 -30 -43 -30 -24 0 -65 56 -65 88 0 34 -14 43
-24 16 -12 -31 -5 -59 19 -83 14 -13 25 -29 25 -36 0 -7 10 -15 23 -19 12 -3
38 -19 57 -37 19 -17 49 -38 65 -46 44 -23 95 -64 95 -76 0 -9 38 -54 113
-134 16 -18 34 -33 40 -33 5 0 44 -17 86 -39 112 -56 342 -121 432 -121 52 0
53 -1 50 -61 -3 -50 23 -109 47 -109 11 0 56 36 103 83 60 60 84 77 87 65 3
-15 -91 -261 -109 -284 -5 -6 -13 -37 -18 -70 -5 -32 -23 -104 -40 -159 -30
-97 -43 -212 -20 -172 6 10 8 26 4 35 -5 13 -3 14 6 5 12 -12 39 -7 39 8 0 5
-7 9 -16 9 -12 0 -14 5 -9 18 4 9 10 41 13 69 2 29 8 53 13 53 5 0 9 11 9 25
0 14 5 25 10 25 6 0 10 16 10 35 0 34 1 34 33 28 17 -3 37 -10 44 -15 7 -6 36
-10 65 -10 29 0 78 -3 108 -6 55 -5 55 -5 20 -14 -19 -5 -41 -10 -49 -12 -8
-1 -19 -9 -25 -17 -6 -8 -29 -14 -51 -15 -22 0 -34 1 -27 3 19 7 14 23 -7 23
-10 0 -24 -7 -32 -16 -8 -10 -23 -14 -41 -12 -41 6 -39 -29 2 -44 49 -17 54
-78 6 -78 -12 0 -31 -6 -42 -14 -15 -12 -17 -17 -6 -28 11 -11 15 -10 23 2 8
13 11 12 24 -4 18 -23 19 -36 4 -36 -5 0 -7 -4 -4 -10 7 -11 112 -10 135 1 8
4 80 14 160 23 204 24 224 27 235 37 5 5 26 9 47 9 21 0 38 5 38 10 0 6 14 10
32 10 31 0 87 14 120 31 10 5 31 9 47 9 17 0 33 4 36 10 3 5 17 10 31 10 13 0
32 4 42 9 34 18 87 36 100 33 9 -2 12 10 10 42 -2 25 -7 46 -12 46 -5 0 -6 3
-3 7 4 3 26 7 49 7 23 1 43 7 46 14 2 6 -2 12 -8 12 -8 0 -10 9 -6 25 5 20 3
23 -11 18 -10 -4 -29 -15 -42 -25 -21 -16 -61 -25 -61 -14 0 2 14 35 31 73 40
88 44 103 75 258 13 72 33 159 44 195 10 36 26 101 35 144 9 44 18 82 20 86 2
3 6 67 8 141 l5 134 51 35 c62 43 127 76 162 84 15 3 46 22 69 41 24 20 66 51
94 70 28 18 63 46 78 62 30 32 102 189 112 245 6 33 5 36 -15 31 -14 -4 -19
-11 -16 -24 3 -11 1 -19 -4 -19 -5 0 -9 -11 -9 -24 0 -13 -6 -26 -14 -29 -8
-3 -20 -24 -27 -46 -8 -28 -18 -41 -30 -41 -24 0 -32 29 -16 54 8 12 14 36 15
55 0 19 10 43 21 55 12 12 21 31 21 42 0 26 35 64 59 64 10 0 24 7 31 15 7 8
18 15 26 15 11 0 10 -7 -1 -41 -18 -49 -18 -49 -5 -49 5 0 14 19 21 43 6 23
22 61 36 85 14 23 20 42 14 42 -6 0 -11 9 -11 19 0 10 -7 21 -15 25 -8 3 -15
16 -15 29 0 14 -11 32 -29 44 -26 20 -30 20 -50 6 -12 -8 -23 -13 -25 -12 -13
21 -29 68 -27 82 3 21 -3 22 -23 1 -15 -14 -16 -12 -16 19 l0 34 -45 -15 c-41
-13 -47 -13 -70 2 -16 11 -25 26 -25 42 0 25 -1 26 -22 12 -34 -22 -81 -29
-74 -11 3 8 -2 16 -12 20 -9 3 -27 18 -39 32 -12 14 -22 21 -23 15 0 -9 -11
-9 -37 -3 -52 12 -49 13 -73 -21 l-21 -30 26 -26 c27 -27 30 -54 8 -62 -7 -2
-13 3 -13 12 0 10 -9 16 -25 16 -31 0 -31 -7 -1 -31 14 -11 26 -29 28 -42 4
-29 29 -28 46 3 28 52 6 -53 -26 -120 -30 -64 -69 -158 -71 -172 0 -5 -1 -13
-1 -20 0 -16 -41 23 -51 50 -5 12 -17 22 -28 22 -30 0 -37 -22 -13 -38 49 -33
4 -70 -53 -44 -40 18 -62 70 -45 103 12 21 10 46 -5 82 -5 12 -3 17 8 17 9 0
18 -8 20 -17 3 -10 4 12 2 49 -3 65 -1 70 31 105 73 83 104 107 104 83 0 -5 6
-10 13 -10 18 0 16 41 -4 70 -11 16 -25 23 -47 23 -18 0 -32 4 -32 9 0 10 46
29 64 27 29 -3 36 1 28 19 -5 9 -17 34 -27 55 -11 21 -28 43 -39 49 -12 6 -24
16 -28 22 -14 21 -8 63 12 89 20 25 18 57 -4 57 -6 1 -21 21 -33 46 -17 34
-20 50 -13 64 7 14 6 20 -6 24 -9 4 -22 2 -29 -4 -6 -5 -14 -7 -18 -4 -14 15
-47 -10 -58 -44 -9 -31 -38 -100 -45 -110 -1 -2 -20 3 -43 10 -27 8 -41 19
-41 30 0 12 -10 18 -32 20 -44 4 -40 19 11 42 42 20 53 39 27 49 -8 3 -17 -1
-20 -10 -5 -11 -14 -13 -34 -8 -42 10 -48 23 -19 36 40 18 34 38 -12 37 -38 0
-39 -1 -45 -46z m464 -508 c0 -16 -16 -19 -25 -4 -8 13 4 32 16 25 5 -4 9 -13
9 -21z m-110 -39 c0 -8 -4 -15 -10 -15 -5 0 -10 7 -10 15 0 8 5 15 10 15 6 0
10 -7 10 -15z m-17 -67 c-5 -26 -23 -40 -23 -18 0 10 23 51 26 47 1 -1 0 -14
-3 -29z m-358 -19 c5 -5 -4 -9 -23 -9 -22 0 -32 5 -32 16 0 11 6 14 23 9 12
-4 26 -11 32 -16z m1005 -30 c0 -11 -5 -19 -11 -19 -5 0 -9 8 -7 18 1 9 -2 24
-7 32 -8 13 -7 13 8 1 9 -7 17 -22 17 -32z m-670 -11 c0 -13 -9 -34 -20 -48
-11 -14 -20 -31 -20 -37 0 -14 -20 -18 -20 -4 0 18 43 111 51 111 5 0 9 -10 9
-22z m698 -50 c17 -17 15 -24 -10 -48 -29 -27 -40 -25 -28 4 5 13 6 26 3 29
-6 7 5 27 16 27 4 0 12 -5 19 -12z m-178 -3 c0 -6 -57 -35 -70 -35 -20 0 -10
16 18 27 30 12 52 16 52 8z m-125 -59 c13 -19 14 -29 5 -45 -8 -17 -7 -24 10
-41 24 -24 34 -20 56 23 15 29 72 95 63 72 -18 -43 -114 -222 -123 -228 -6 -4
-28 -6 -49 -5 -22 1 -41 -3 -46 -10 -4 -7 -14 -10 -22 -7 -9 3 -24 -4 -34 -15
-18 -20 -18 -21 1 -34 19 -14 19 -15 -3 -38 -13 -14 -23 -30 -23 -36 0 -17
-27 -15 -34 3 -3 8 -15 15 -26 15 -11 0 -20 5 -20 10 0 12 28 40 56 56 18 11
18 12 1 31 -21 24 -15 46 19 68 15 9 24 25 24 41 0 13 7 27 16 31 11 4 14 13
9 31 -5 21 -3 24 14 19 12 -3 21 -1 21 4 0 13 53 79 62 79 4 0 15 -11 23 -24z
m326 -31 c-11 -24 -21 -50 -21 -56 0 -30 -98 -239 -112 -239 -4 0 -8 -11 -8
-25 0 -14 -4 -25 -10 -25 -5 0 -30 -20 -55 -45 -37 -38 -49 -44 -71 -39 -16 4
-21 9 -14 14 16 10 -15 34 -35 26 -22 -8 -18 7 6 24 12 8 25 24 30 35 5 11 13
27 18 35 16 27 28 64 40 120 7 30 17 66 23 80 46 106 65 127 100 108 12 -7 25
-16 28 -19 17 -20 38 -12 64 23 36 50 45 42 17 -17z m79 8 c-1 -14 -40 -56
-47 -50 -7 8 24 57 37 57 6 0 10 -3 10 -7z m-53 -85 c-3 -8 -6 -5 -6 6 -1 11
2 17 5 13 3 -3 4 -12 1 -19z m-869 -93 c-30 -35 -45 -31 -16 4 13 15 26 27 30
24 4 -2 -2 -15 -14 -28z m232 -35 c0 -5 -4 -10 -10 -10 -5 0 -10 5 -10 10 0 6
5 10 10 10 6 0 10 -4 10 -10z m-270 -20 c0 -6 -9 -20 -20 -32 -23 -25 -25 -20
-8 17 11 25 28 34 28 15z m-90 -138 c0 -22 -125 -160 -136 -149 -7 6 3 20 75
105 41 49 61 63 61 44z m827 -74 c-3 -7 -5 -2 -5 12 0 14 2 19 5 13 2 -7 2
-19 0 -25z m-927 -294 c0 -8 -5 -12 -10 -9 -6 4 -8 11 -5 16 9 14 15 11 15 -7z
m-1135 -4 c122 9 160 6 163 -13 3 -16 -1 -17 -32 -11 -20 3 -36 3 -36 -1 0
-14 29 -35 49 -35 12 0 21 -4 21 -10 0 -5 -11 -10 -25 -10 -22 0 -25 -4 -25
-34 0 -23 9 -43 29 -65 25 -26 33 -30 67 -25 84 11 86 13 80 40 l-7 26 26 -26
c33 -33 32 -45 -5 -52 -16 -4 -30 -10 -30 -14 0 -4 -9 -10 -20 -13 -20 -5 -29
-37 -10 -37 14 0 12 -29 -3 -44 -18 -19 -65 -28 -69 -14 -3 7 -10 8 -17 4 -10
-7 -10 -10 -1 -16 7 -4 9 -13 6 -19 -12 -18 -43 -12 -59 12 -14 21 -16 21 -33
5 -39 -34 -163 -1 -149 41 3 9 -2 26 -10 37 -8 10 -15 26 -15 35 0 9 -7 19
-15 23 -8 3 -15 12 -15 20 0 7 7 16 15 20 18 7 20 33 3 39 -7 2 -10 8 -5 12 4
5 40 4 80 -2 79 -11 97 -8 97 14 0 9 -6 13 -15 9 -24 -9 -46 4 -40 24 3 10 2
21 -4 24 -16 10 -41 -5 -41 -25 0 -10 -4 -19 -10 -19 -14 0 -12 38 2 42 9 3 7
10 -6 24 -14 13 -21 15 -24 6 -5 -17 -42 -15 -42 3 0 19 39 36 60 27 8 -3 38
-5 65 -2z m350 -41 c22 -3 32 -7 22 -8 -10 0 -20 -8 -24 -17 -4 -11 -13 -14
-30 -9 -19 4 -26 1 -30 -15 -6 -21 -12 -24 -37 -14 -20 8 -21 44 -1 44 8 0 15
9 15 21 0 17 4 19 23 13 12 -4 40 -11 62 -15z m1305 11 c0 -6 -7 -13 -15 -16
-19 -8 -32 -58 -41 -151 -4 -40 -10 -73 -13 -73 -7 0 6 217 14 238 5 14 55 16
55 2z m-1145 -146 c23 -15 24 -17 9 -45 -17 -34 -21 -35 -46 -12 -21 19 -23
38 -5 58 15 18 13 18 42 -1z m-145 -54 c-19 -13 -30 -13 -30 0 0 6 10 10 23
10 18 0 19 -2 7 -10z m1210 -400 c0 -5 -5 -10 -11 -10 -5 0 -7 5 -4 10 3 6 8
10 11 10 2 0 4 -4 4 -10z m-370 -440 c0 -12 -8 -12 -35 0 -18 8 -17 9 8 9 15
1 27 -3 27 -9z"/>
<path d="M9145 4230 c-7 -12 2 -30 16 -30 12 0 12 27 0 35 -5 3 -12 1 -16 -5z"/>
<path d="M8970 4065 c0 -8 7 -15 15 -15 8 0 15 7 15 15 0 8 -7 15 -15 15 -8 0
-15 -7 -15 -15z"/>
<path d="M9345 4340 c3 -5 8 -10 11 -10 2 0 4 5 4 10 0 6 -5 10 -11 10 -5 0
-7 -4 -4 -10z"/>
<path d="M7358 3393 c6 -2 18 -2 25 0 6 3 1 5 -13 5 -14 0 -19 -2 -12 -5z"/>
<path d="M7430 3370 c-13 -9 -13 -11 0 -20 19 -12 35 -8 35 10 0 18 -16 22
-35 10z"/>
<path d="M7340 3355 c0 -16 27 -20 48 -6 11 7 10 10 -3 15 -28 10 -45 7 -45
-9z"/>
<path d="M8370 5195 c-7 -8 -10 -22 -6 -30 3 -10 0 -15 -11 -15 -17 0 -42 -28
-43 -47 0 -18 18 -16 37 2 21 21 38 14 38 -16 0 -22 -5 -24 -47 -27 -51 -3
-70 -25 -38 -42 28 -15 25 -27 -15 -52 -19 -13 -35 -29 -35 -37 0 -11 5 -9 21
5 12 10 23 17 26 15 3 -2 22 12 43 30 20 19 44 39 52 44 13 8 15 26 11 98 -6
88 -11 99 -33 72z"/>
<path d="M8650 5190 c-8 -5 -12 -12 -9 -15 4 -3 12 1 19 10 14 17 11 19 -10 5z"/>
<path d="M9635 5149 c-4 -6 -5 -12 -2 -15 2 -3 7 2 10 11 7 17 1 20 -8 4z"/>
<path d="M6574 5045 c11 -8 25 -15 30 -15 6 0 2 7 -8 15 -11 8 -25 15 -30 15
-6 0 -2 -7 8 -15z"/>
<path d="M9520 5020 c0 -16 5 -30 10 -30 6 0 10 14 10 30 0 17 -4 30 -10 30
-5 0 -10 -13 -10 -30z"/>
<path d="M6630 5020 c0 -5 5 -10 11 -10 5 0 7 5 4 10 -3 6 -8 10 -11 10 -2 0
-4 -4 -4 -10z"/>
<path d="M6700 4985 c47 -18 71 -18 40 0 -14 8 -36 14 -50 14 -22 0 -21 -2 10
-14z"/>
<path d="M9560 4966 c0 -9 5 -16 10 -16 6 0 10 4 10 9 0 6 -4 13 -10 16 -5 3
-10 -1 -10 -9z"/>
<path d="M6790 4961 c0 -4 28 -16 63 -25 34 -10 71 -20 82 -23 17 -5 18 -4 7
10 -7 8 -28 15 -47 15 -18 0 -44 7 -57 16 -25 17 -48 21 -48 7z"/>
<path d="M9512 4950 c-9 -14 -10 -37 -6 -72 6 -42 9 -48 15 -30 5 12 13 22 19
22 6 0 8 4 5 10 -3 5 -9 28 -13 50 -7 38 -8 39 -20 20z"/>
<path d="M5980 4889 c0 -5 5 -7 10 -4 6 3 10 8 10 11 0 2 -4 4 -10 4 -5 0 -10
-5 -10 -11z"/>
<path d="M7925 4880 c-3 -5 -1 -10 4 -10 6 0 11 5 11 10 0 6 -2 10 -4 10 -3 0
-8 -4 -11 -10z"/>
<path d="M9606 4771 c-4 -6 -3 -18 2 -27 8 -15 10 -14 16 2 8 20 -8 42 -18 25z"/>
<path d="M7980 4704 c-36 -24 -73 -44 -82 -44 -10 0 -18 -4 -18 -10 0 -5 -6
-10 -14 -10 -7 0 -24 -11 -37 -24 -17 -17 -30 -21 -44 -16 l-20 8 20 8 c27 10
37 27 22 36 -9 5 -9 10 1 20 22 22 13 28 -34 24 -60 -6 -79 -23 -36 -32 37 -8
41 -19 10 -27 -15 -4 -26 0 -35 13 -8 11 -25 20 -39 20 -19 0 -24 -5 -24 -26
0 -20 5 -25 23 -24 35 3 43 1 66 -19 13 -11 20 -25 16 -30 -3 -6 -2 -11 4 -11
16 0 127 60 149 80 12 11 24 20 27 20 8 0 125 80 125 85 0 11 -18 2 -80 -41z"/>
<path d="M8980 4730 c0 -5 4 -10 9 -10 6 0 13 5 16 10 3 6 -1 10 -9 10 -9 0
-16 -4 -16 -10z"/>
<path d="M7246 4683 c-11 -11 -6 -23 9 -23 8 0 15 4 15 9 0 13 -16 22 -24 14z"/>
<path d="M9610 4674 c0 -20 24 -44 44 -44 8 0 16 -12 19 -27 2 -16 5 -1 6 31
1 55 0 58 -14 40 -13 -17 -14 -17 -15 -1 0 22 -40 24 -40 1z"/>
<path d="M7177 4663 c-4 -3 -24 -9 -44 -12 -31 -5 -37 -10 -35 -27 4 -31 -20
-47 -52 -34 -35 13 -36 13 -36 -5 0 -18 -21 -20 -38 -3 -8 8 -15 8 -25 -1 -8
-6 -25 -10 -37 -9 -13 2 -25 -3 -27 -9 -4 -12 5 -14 82 -17 11 -1 25 -5 32 -9
7 -4 24 -5 38 -1 27 7 66 -8 94 -34 9 -9 26 -11 47 -7 20 3 41 1 54 -7 18 -11
23 -10 31 5 6 10 22 17 40 17 24 0 29 -3 25 -17 -5 -15 1 -18 34 -19 l39 -2
-36 44 c-37 44 -53 54 -53 32 0 -6 -3 -8 -6 -5 -4 4 -2 12 3 19 5 7 13 22 17
32 5 16 4 17 -9 6 -8 -7 -22 -10 -30 -6 -13 4 -14 10 -5 26 10 19 9 20 -14 14
-18 -4 -27 -1 -36 15 -10 20 -40 28 -53 14z"/>
<path d="M7450 4653 c0 -9 36 -27 120 -59 43 -17 134 -23 137 -9 2 6 -12 10
-30 11 -31 0 -83 15 -142 40 -47 20 -85 27 -85 17z"/>
<path d="M6658 4613 c7 -3 16 -2 19 1 4 3 -2 6 -13 5 -11 0 -14 -3 -6 -6z"/>
<path d="M6760 4590 c20 -13 40 -13 40 0 0 6 -12 10 -27 10 -22 0 -25 -2 -13
-10z"/>
<path d="M6822 4584 c4 -21 22 -23 26 -1 2 10 -3 17 -13 17 -10 0 -15 -6 -13
-16z"/>
<path d="M9672 4530 c0 -14 2 -19 5 -12 2 6 2 18 0 25 -3 6 -5 1 -5 -13z"/>
<path d="M8450 4499 c0 -5 5 -7 10 -4 6 3 10 8 10 11 0 2 -4 4 -10 4 -5 0 -10
-5 -10 -11z"/>
<path d="M8960 4480 c0 -16 23 -60 32 -60 12 0 10 44 -4 58 -14 14 -28 16 -28
2z"/>
<path d="M9657 4424 c-4 -4 -7 -14 -7 -23 0 -11 3 -12 11 -4 6 6 10 16 7 23
-2 6 -7 8 -11 4z"/>
<path d="M8907 4383 c-8 -7 11 -33 24 -33 5 0 9 9 9 20 0 19 -20 27 -33 13z"/>
<path d="M8930 4305 c0 -8 5 -15 10 -15 6 0 10 7 10 15 0 8 -4 15 -10 15 -5 0
-10 -7 -10 -15z"/>
<path d="M8830 4231 c0 -6 5 -13 10 -16 6 -3 10 1 10 9 0 9 -4 16 -10 16 -5 0
-10 -4 -10 -9z"/>
<path d="M5606 4055 c4 -8 8 -15 10 -15 2 0 4 7 4 15 0 8 -4 15 -10 15 -5 0
-7 -7 -4 -15z"/>
<path d="M6757 3984 c-14 -14 -6 -24 19 -24 16 0 24 5 22 13 -5 14 -31 21 -41
11z"/>
<path d="M7519 3959 c-20 -20 -20 -22 -5 -31 13 -7 21 -5 31 9 31 41 10 58
-26 22z"/>
<path d="M6690 3950 c0 -5 5 -10 10 -10 6 0 10 5 10 10 0 6 -4 10 -10 10 -5 0
-10 -4 -10 -10z"/>
<path d="M7595 3940 c-3 -5 1 -10 9 -10 8 0 18 5 21 10 3 6 -1 10 -9 10 -8 0
-18 -4 -21 -10z"/>
<path d="M6815 3890 c-3 -5 -1 -10 4 -10 6 0 11 5 11 10 0 6 -2 10 -4 10 -3 0
-8 -4 -11 -10z"/>
<path d="M6765 3881 c-7 -12 12 -24 25 -16 11 7 4 25 -10 25 -5 0 -11 -4 -15
-9z"/>
<path d="M6090 3866 c0 -9 7 -16 16 -16 9 0 14 5 12 12 -6 18 -28 21 -28 4z"/>
<path d="M6420 3805 c0 -8 4 -15 10 -15 5 0 7 7 4 15 -4 8 -8 15 -10 15 -2 0
-4 -7 -4 -15z"/>
<path d="M6729 3780 c-14 -15 -15 -22 -5 -41 14 -30 44 -34 118 -19 54 12 58
15 58 40 0 25 -4 28 -37 33 -21 2 -44 0 -51 -6 -9 -7 -16 -7 -24 1 -17 17 -40
13 -59 -8z m121 -20 c0 -5 -4 -10 -9 -10 -6 0 -13 5 -16 10 -3 6 1 10 9 10 9
0 16 -4 16 -10z"/>
<path d="M6552 3769 c2 -7 10 -15 17 -17 8 -3 12 1 9 9 -2 7 -10 15 -17 17 -8
3 -12 -1 -9 -9z"/>
<path d="M6420 3740 c0 -6 7 -10 15 -10 8 0 15 2 15 4 0 2 -7 6 -15 10 -8 3
-15 1 -15 -4z"/>
<path d="M6900 3672 c0 -12 19 -26 26 -19 2 2 -2 10 -11 17 -9 8 -15 8 -15 2z"/>
<path d="M6618 3620 c12 -11 24 -20 28 -20 4 0 -1 9 -11 20 -10 11 -23 20 -28
20 -6 0 -1 -9 11 -20z"/>
<path d="M6480 3616 c0 -18 38 -46 62 -46 21 0 24 16 6 23 -7 3 -3 6 10 6 12
1 22 7 22 16 0 11 -12 15 -50 15 -37 0 -50 -4 -50 -14z"/>
<path d="M6651 3574 c0 -11 3 -14 6 -6 3 7 2 16 -1 19 -3 4 -6 -2 -5 -13z"/>
<path d="M6693 3541 c-24 -20 -31 -51 -13 -51 6 0 10 8 8 17 -2 10 5 19 20 22
13 3 23 10 23 16 1 17 -15 15 -38 -4z"/>
<path d="M5880 3330 c0 -5 5 -10 10 -10 6 0 10 5 10 10 0 6 -4 10 -10 10 -5 0
-10 -4 -10 -10z"/>
<path d="M9602 3118 c-18 -24 -28 -44 -22 -46 5 -2 10 -15 10 -28 0 -13 6 -24
13 -24 16 0 59 45 77 78 10 21 10 23 -7 13 -26 -13 -47 2 -40 28 3 12 4 21 3
21 -1 0 -16 -19 -34 -42z"/>
<path d="M9712 3050 c0 -19 2 -27 5 -17 2 9 2 25 0 35 -3 9 -5 1 -5 -18z"/>
<path d="M6330 2980 c0 -5 5 -10 10 -10 6 0 10 5 10 10 0 6 -4 10 -10 10 -5 0
-10 -4 -10 -10z"/>
<path d="M9550 2970 c0 -5 5 -10 10 -10 6 0 10 5 10 10 0 6 -4 10 -10 10 -5 0
-10 -4 -10 -10z"/>
<path d="M5566 2915 c32 -28 47 -35 84 -35 25 0 63 -7 85 -14 41 -14 55 -13
55 6 0 6 -9 8 -20 5 -11 -3 -23 -1 -26 4 -3 5 -27 9 -54 9 -52 0 -93 14 -124
42 -11 10 -24 18 -29 18 -5 0 8 -16 29 -35z"/>
<path d="M6336 2891 c-12 -5 -16 -10 -9 -14 13 -8 43 2 43 14 0 10 -8 10 -34
0z"/>
<path d="M5030 2854 c0 -8 5 -12 10 -9 6 3 10 10 10 16 0 5 -4 9 -10 9 -5 0
-10 -7 -10 -16z"/>
<path d="M5811 2851 c-22 -14 -4 -33 21 -20 14 8 23 8 31 0 13 -13 51 -15 43
-2 -3 5 -16 11 -28 14 -13 2 -30 7 -38 11 -8 3 -21 2 -29 -3z"/>
<path d="M5958 2803 c7 -3 16 -2 19 1 4 3 -2 6 -13 5 -11 0 -14 -3 -6 -6z"/>
<path d="M6020 2750 c0 -5 7 -10 16 -10 8 0 12 5 9 10 -3 6 -10 10 -16 10 -5
0 -9 -4 -9 -10z"/>
<path d="M9712 2650 c0 -14 2 -19 5 -12 2 6 2 18 0 25 -3 6 -5 1 -5 -13z"/>
<path d="M8900 2639 c0 -5 5 -7 10 -4 6 3 10 8 10 11 0 2 -4 4 -10 4 -5 0 -10
-5 -10 -11z"/>
<path d="M9321 2563 c-13 -15 -12 -16 18 -10 19 4 39 7 45 8 12 0 -24 17 -39
18 -5 0 -16 -7 -24 -16z"/>
<path d="M7717 2403 c-10 -10 -8 -43 2 -43 9 0 21 24 21 41 0 11 -14 12 -23 2z"/>
<path d="M9655 2281 c-8 -17 -12 -31 -7 -31 10 0 35 50 28 57 -2 3 -12 -9 -21
-26z"/>
<path d="M9580 2185 c-7 -8 -8 -15 -2 -15 5 0 15 7 22 15 7 8 8 15 2 15 -5 0
-15 -7 -22 -15z"/>
<path d="M9651 2052 c-7 -13 -11 -26 -8 -28 8 -8 29 25 25 38 -3 8 -9 4 -17
-10z"/>
<path d="M9671 1986 c-8 -10 -9 -16 -1 -21 5 -3 13 1 16 10 9 22 -1 29 -15 11z"/>
<path d="M9733 1935 c0 -22 2 -30 4 -17 2 12 2 30 0 40 -3 9 -5 -1 -4 -23z"/>
<path d="M9275 1940 c3 -5 13 -10 21 -10 8 0 14 5 14 10 0 6 -9 10 -21 10 -11
0 -17 -4 -14 -10z"/>
<path d="M9132 1874 c4 -21 22 -23 26 -1 2 10 -3 17 -13 17 -10 0 -15 -6 -13
-16z"/>
<path d="M9742 1840 c0 -14 2 -19 5 -12 2 6 2 18 0 25 -3 6 -5 1 -5 -13z"/>
<path d="M9752 1760 c0 -14 2 -19 5 -12 2 6 2 18 0 25 -3 6 -5 1 -5 -13z"/>
<path d="M9743 1640 c0 -36 2 -50 4 -32 2 17 2 47 0 65 -2 17 -4 3 -4 -33z"/>
<path d="M9753 1510 c0 -30 2 -43 4 -27 2 15 2 39 0 55 -2 15 -4 2 -4 -28z"/>
<path d="M9622 750 c0 -14 2 -19 5 -12 2 6 2 18 0 25 -3 6 -5 1 -5 -13z"/>
<path d="M9598 681 c-10 -21 -18 -45 -18 -55 0 -9 -9 -63 -19 -119 -32 -166
-53 -321 -48 -347 3 -20 5 -17 6 10 1 38 25 189 40 255 5 22 15 67 21 100 6
33 18 89 26 123 9 35 14 65 12 67 -2 2 -11 -14 -20 -34z"/>
<path d="M9501 94 c0 -11 3 -14 6 -6 3 7 2 16 -1 19 -3 4 -6 -2 -5 -13z"/>
</g>
</svg>
